<?xml version="1.0" encoding="UTF-8" standalone="no"?>
<!-- Generated by graphviz version 2.38.0 (20140413.2041)
 -->

<!-- Title: %3 Pages: 1 -->

<svg
   xmlns:dc="http://purl.org/dc/elements/1.1/"
   xmlns:cc="http://creativecommons.org/ns#"
   xmlns:rdf="http://www.w3.org/1999/02/22-rdf-syntax-ns#"
   xmlns:svg="http://www.w3.org/2000/svg"
   xmlns="http://www.w3.org/2000/svg"
   xmlns:sodipodi="http://sodipodi.sourceforge.net/DTD/sodipodi-0.dtd"
   xmlns:inkscape="http://www.inkscape.org/namespaces/inkscape"
   width="272.26611mm"
   height="100.31394mm"
   viewBox="0 0 1286.2965 473.92412"
   id="svg2"
   version="1.1"
   inkscape:version="0.91 r13725"
   sodipodi:docname="injected_arm_control_network.svg">
  <metadata
     id="metadata333">
    <rdf:RDF>
      <cc:Work
         rdf:about="">
        <dc:format>image/svg+xml</dc:format>
        <dc:type
           rdf:resource="http://purl.org/dc/dcmitype/StillImage" />
        <dc:title></dc:title>
      </cc:Work>
    </rdf:RDF>
  </metadata>
  <defs
     id="defs331" />
  <sodipodi:namedview
     pagecolor="#ffffff"
     bordercolor="#666666"
     borderopacity="1"
     objecttolerance="10"
     gridtolerance="10"
     guidetolerance="10"
     inkscape:pageopacity="0"
     inkscape:pageshadow="2"
     inkscape:window-width="1877"
     inkscape:window-height="1003"
     id="namedview329"
     showgrid="false"
     units="mm"
     fit-margin-top="0"
     fit-margin-left="0"
     fit-margin-right="0"
     fit-margin-bottom="0"
     inkscape:zoom="0.89939018"
     inkscape:cx="373.41704"
     inkscape:cy="38.869418"
     inkscape:window-x="0"
     inkscape:window-y="0"
     inkscape:window-maximized="0"
     inkscape:current-layer="svg2" />
  <polygon
     points="8,-300 8,-300 8,-374 576,-374 576,-300 "
     id="polygon15"
     style="fill:none;stroke:#000000"
     transform="translate(-7.5000407,374.5)" />
  <polygon
     points="1138,-263 597,-263 597,-263 597,-367 1138,-367 "
     id="polygon23"
     style="fill:none;stroke:#000000"
     transform="translate(-522.2035,481.42414)" />
  <polygon
     points="1176,-8 596,-8 596,-8 596,-170 1176,-170 "
     id="polygon31"
     style="fill:none;stroke:#000000"
     transform="translate(-522.2035,481.42414)" />
  <polygon
     points="1808,-246 1201,-246 1201,-246 1201,-350 1808,-350 "
     id="polygon39"
     style="fill:none;stroke:#000000"
     transform="translate(-522.2035,481.42414)" />
  <polygon
     points="1784,-27 1196,-27 1196,-27 1196,-101 1784,-101 "
     id="polygon47"
     style="fill:none;stroke:#000000"
     transform="translate(-522.2035,481.42414)" />
  <polygon
     points="518,-337 518,-337 518,-366 564,-366 564,-337 "
     id="polygon55"
     style="fill:none;stroke:#000000"
     transform="translate(-7.5000407,374.5)" />
  <text
     x="518"
     y="26.70001"
     font-size="14.00"
     id="text57"
     style="font-size:14px;font-family:Arial;text-anchor:start">state</text>
  <polygon
     points="518,-308 518,-308 518,-337 564,-337 564,-308 "
     id="polygon62"
     style="fill:none;stroke:#000000"
     transform="translate(-7.5000407,374.5)" />
  <text
     x="523.5"
     y="55.700008"
     font-size="14.00"
     id="text64"
     style="font-size:14px;font-family:Arial;text-anchor:start">out</text>
  <polygon
     points="723,-307 605,-307 605,-307 605,-336 723,-336 "
     id="polygon72"
     style="fill:none;stroke:#000000"
     transform="translate(-522.2035,481.42414)" />
  <text
     x="109.79651"
     y="163.62415"
     font-size="14.00"
     id="text74"
     style="font-size:14px;font-family:Arial;text-anchor:start">command</text>
  <polygon
     points="723,-278 605,-278 605,-278 605,-307 723,-307 "
     id="polygon79"
     style="fill:none;stroke:#000000"
     transform="translate(-522.2035,481.42414)" />
  <text
     x="90.296501"
     y="192.62415"
     font-size="14.00"
     id="text81"
     style="font-size:14px;font-family:Arial;text-anchor:start">cartesian_status</text>
  <path
     d="m 32.555119,159.42414 43.894383,0"
     id="path86"
     inkscape:connector-curvature="0"
     style="fill:none;stroke:#000000"
     sodipodi:nodetypes="cc" />
  <polygon
     points="599,-318.5 599,-325.5 599,-325.5 609,-322 "
     id="polygon88"
     style="fill:#000000;stroke:#000000"
     transform="translate(-522.2035,481.42414)" />
  <text
     x="251.79649"
     y="174.62415"
     font-size="14.00"
     id="text96"
     style="font-size:14px;font-family:Arial;text-anchor:start">OroGen::CartCtrlWdls::CartCtrl</text>
  <polygon
     points="973,-300.5 771,-300.5 771,-300.5 771,-321.5 973,-321.5 "
     id="polygon98"
     style="fill:none;stroke:#ffffff"
     transform="translate(-522.2035,481.42414)" />
  <polygon
     points="1130,-329 1058,-329 1058,-329 1058,-358 1130,-358 "
     id="polygon106"
     style="fill:none;stroke:#000000"
     transform="translate(-522.2035,481.42414)" />
  <text
     x="556.29651"
     y="141.62415"
     font-size="14.00"
     id="text108"
     style="font-size:14px;font-family:Arial;text-anchor:start">state</text>
  <polygon
     points="1130,-300 1058,-300 1058,-300 1058,-329 1130,-329 "
     id="polygon113"
     style="fill:none;stroke:#000000"
     transform="translate(-522.2035,481.42414)" />
  <text
     x="542.79651"
     y="170.62415"
     font-size="14.00"
     id="text115"
     style="font-size:14px;font-family:Arial;text-anchor:start">ctrl_error</text>
  <polygon
     points="1130,-271 1058,-271 1058,-271 1058,-300 1130,-300 "
     id="polygon120"
     style="fill:none;stroke:#000000"
     transform="translate(-522.2035,481.42414)" />
  <text
     x="548.29651"
     y="199.62415"
     font-size="14.00"
     id="text122"
     style="font-size:14px;font-family:Arial;text-anchor:start">ctrl_out</text>
  <polygon
     points="1309,-285 1209,-285 1209,-285 1209,-314 1309,-314 "
     id="polygon130"
     style="fill:none;stroke:#000000"
     transform="translate(-522.2035,481.42414)" />
  <text
     x="694.29651"
     y="185.62415"
     font-size="14.00"
     id="text132"
     style="font-size:14px;font-family:Arial;text-anchor:start">desired_twist</text>
  <polygon
     points="1309,-256 1209,-256 1209,-256 1209,-285 1309,-285 "
     id="polygon137"
     style="fill:none;stroke:#000000"
     transform="translate(-522.2035,481.42414)" />
  <text
     x="700.79651"
     y="214.62415"
     font-size="14.00"
     id="text139"
     style="font-size:14px;font-family:Arial;text-anchor:start">joint_status</text>
  <path
     d="m 603.7965,196.42414 c 35.56,0 45.89,-12.319 76.72,-14.629"
     id="path144"
     inkscape:connector-curvature="0"
     style="fill:none;stroke:#000000" />
  <polygon
     points="1203.13,-296.142 1202.88,-303.137 1202.88,-303.137 1213,-300 "
     id="polygon146"
     style="fill:#000000;stroke:#000000"
     transform="translate(-522.2035,481.42414)" />
  <text
     x="860.29651"
     y="194.62415"
     font-size="14.00"
     id="text154"
     style="font-size:14px;font-family:Arial;text-anchor:start">OroGen::CartCtrlWdls::WDLSSolver</text>
  <polygon
     points="1617,-280.5 1379,-280.5 1379,-280.5 1379,-301.5 1617,-301.5 "
     id="polygon156"
     style="fill:none;stroke:#ffffff"
     transform="translate(-522.2035,481.42414)" />
  <polygon
     points="1168,-132 1020,-132 1020,-132 1020,-161 1168,-161 "
     id="polygon164"
     style="fill:none;stroke:#000000"
     transform="translate(-522.2035,481.42414)" />
  <text
     x="556.29651"
     y="338.62415"
     font-size="14.00"
     id="text166"
     style="font-size:14px;font-family:Arial;text-anchor:start">state</text>
  <polygon
     points="1168,-103 1020,-103 1020,-103 1020,-132 1168,-132 "
     id="polygon171"
     style="fill:none;stroke:#000000"
     transform="translate(-522.2035,481.42414)" />
  <text
     x="524.29651"
     y="367.62415"
     font-size="14.00"
     id="text173"
     style="font-size:14px;font-family:Arial;text-anchor:start">pose_samples</text>
  <polygon
     points="1168,-74 1020,-74 1020,-74 1020,-103 1168,-103 "
     id="polygon178"
     style="fill:none;stroke:#000000"
     transform="translate(-522.2035,481.42414)" />
  <text
     x="523.79651"
     y="396.62415"
     font-size="14.00"
     id="text180"
     style="font-size:14px;font-family:Arial;text-anchor:start">joints_samples</text>
  <polygon
     points="1168,-45 1020,-45 1020,-45 1020,-74 1168,-74 "
     id="polygon185"
     style="fill:none;stroke:#000000"
     transform="translate(-522.2035,481.42414)" />
  <text
     x="505.79648"
     y="425.62415"
     font-size="14.00"
     id="text187"
     style="font-size:14px;font-family:Arial;text-anchor:start">ur10_pose_samples</text>
  <polygon
     points="1168,-16 1020,-16 1020,-16 1020,-45 1168,-45 "
     id="polygon192"
     style="fill:none;stroke:#000000"
     transform="translate(-522.2035,481.42414)" />
  <text
     x="505.29648"
     y="454.62415"
     font-size="14.00"
     id="text194"
     style="font-size:14px;font-family:Arial;text-anchor:start">ur10_joints_samples</text>
  <path
     d="m 641.7965,451.42414 c 50.61,0 2.42,-207.437 39.13,-236.607"
     id="path199"
     inkscape:connector-curvature="0"
     style="fill:none;stroke:#000000" />
  <polygon
     points="1204.68,-263.438 1202.41,-270.058 1202.41,-270.058 1213,-270 "
     id="polygon201"
     style="fill:#000000;stroke:#000000"
     transform="translate(-522.2035,481.42414)" />
  <polygon
     points="1314,-42 1204,-42 1204,-42 1204,-71 1314,-71 "
     id="polygon209"
     style="fill:none;stroke:#000000"
     transform="translate(-522.2035,481.42414)" />
  <text
     x="688.79651"
     y="428.62415"
     font-size="14.00"
     id="text211"
     style="font-size:14px;font-family:Arial;text-anchor:start">joints_samples</text>
  <path
     d="m 641.7965,451.42414 c 22,0 45.89,-6.6983 64.07,-13.2951"
     id="path216"
     inkscape:connector-curvature="0"
     style="fill:none;stroke:#000000" />
  <polygon
     points="1229.45,-40.0729 1226.95,-46.6135 1226.95,-46.6135 1237.54,-46.9065 "
     id="polygon218"
     style="fill:#000000;stroke:#000000"
     transform="translate(-522.2035,481.42414)" />
  <text
     x="831.29651"
     y="425.62415"
     font-size="14.00"
     id="text226"
     style="font-size:14px;font-family:Arial;text-anchor:start">OroGen::RobotFrames::SingleChainPublisher</text>
  <polygon
     points="1646,-49.5 1350,-49.5 1350,-49.5 1350,-70.5 1646,-70.5 "
     id="polygon228"
     style="fill:none;stroke:#ffffff"
     transform="translate(-522.2035,481.42414)" />
  <polygon
     points="1800,-312 1682,-312 1682,-312 1682,-341 1800,-341 "
     id="polygon236"
     style="fill:none;stroke:#000000"
     transform="translate(-522.2035,481.42414)" />
  <text
     x="1175.7965"
     y="158.62415"
     font-size="14.00"
     id="text238"
     style="font-size:14px;font-family:Arial;text-anchor:start">solver_output</text>
  <polygon
     points="1800,-283 1682,-283 1682,-283 1682,-312 1800,-312 "
     id="polygon243"
     style="fill:none;stroke:#000000"
     transform="translate(-522.2035,481.42414)" />
  <text
     x="1167.2965"
     y="187.62415"
     font-size="14.00"
     id="text245"
     style="font-size:14px;font-family:Arial;text-anchor:start">cartesian_status</text>
  <polygon
     points="1800,-254 1682,-254 1682,-254 1682,-283 1800,-283 "
     id="polygon250"
     style="fill:none;stroke:#000000"
     transform="translate(-522.2035,481.42414)" />
  <text
     x="1203.2965"
     y="216.62415"
     font-size="14.00"
     id="text252"
     style="font-size:14px;font-family:Arial;text-anchor:start">state</text>
  <polygon
     points="724,-124 604,-124 604,-124 604,-153 724,-153 "
     id="polygon260"
     style="fill:none;stroke:#000000"
     transform="translate(-522.2035,481.42414)" />
  <text
     x="101.2965"
     y="346.62415"
     font-size="14.00"
     id="text262"
     style="font-size:14px;font-family:Arial;text-anchor:start">model_pose</text>
  <polygon
     points="724,-95 604,-95 604,-95 604,-124 724,-124 "
     id="polygon267"
     style="fill:none;stroke:#000000"
     transform="translate(-522.2035,481.42414)" />
  <text
     x="106.79651"
     y="375.62415"
     font-size="14.00"
     id="text269"
     style="font-size:14px;font-family:Arial;text-anchor:start">joints_cmd</text>
  <polygon
     points="724,-66 604,-66 604,-66 604,-95 724,-95 "
     id="polygon274"
     style="fill:none;stroke:#000000"
     transform="translate(-522.2035,481.42414)" />
  <text
     x="88.796501"
     y="404.62415"
     font-size="14.00"
     id="text276"
     style="font-size:14px;font-family:Arial;text-anchor:start">ur10_joints_cmd</text>
  <path
     d="m 1163.7965,154.42414 c -30.23,0 -14.65,38.546 -40,55 -147.11999,95.477 -210.62,82 -386,82 -167,0 -167,0 -167,0 -151.707,0 -197.755,6.27 -333,75 -17.44,8.863 -17.226,27.0492 -30.054,33.039"
     id="path281"
     inkscape:connector-curvature="0"
     style="fill:none;stroke:#000000" />
  <polygon
     points="729.134,-85.3683 730.488,-78.5005 730.488,-78.5005 720,-80 "
     id="polygon283"
     style="fill:#000000;stroke:#000000"
     transform="translate(-522.2035,481.42414)" />
  <text
     x="240.79649"
     y="389.62415"
     font-size="14.00"
     id="text291"
     style="font-size:14px;font-family:Arial;text-anchor:start">OroGen::RockGazebo::ModelTask</text>
  <polygon
     points="984,-85.5 760,-85.5 760,-85.5 760,-106.5 984,-106.5 "
     id="polygon293"
     style="fill:none;stroke:#ffffff"
     transform="translate(-522.2035,481.42414)" />
  <polygon
     points="1776,-64 1706,-64 1706,-64 1706,-93 1776,-93 "
     id="polygon301"
     style="fill:none;stroke:#000000"
     transform="translate(-522.2035,481.42414)" />
  <text
     x="1190.7965"
     y="406.62415"
     font-size="14.00"
     id="text303"
     style="font-size:14px;font-family:Arial;text-anchor:start">tip_pose</text>
  <polygon
     points="1776,-35 1706,-35 1706,-35 1706,-64 1776,-64 "
     id="polygon308"
     style="fill:none;stroke:#000000"
     transform="translate(-522.2035,481.42414)" />
  <text
     x="1203.2965"
     y="435.62415"
     font-size="14.00"
     id="text310"
     style="font-size:14px;font-family:Arial;text-anchor:start">state</text>
  <path
     d="m 1187.7965,402.42414 c -210.67999,0 -239.32,-149 -450,-149 -167,0 -167,0 -167,0 -165.18,0 -203.8,-61.402 -363.789,-63.92"
     id="path315"
     inkscape:connector-curvature="0"
     style="fill:none;stroke:#000000" />
  <polygon
     points="729.027,-295.422 728.972,-288.422 728.972,-288.422 719,-292 "
     id="polygon317"
     style="fill:#000000;stroke:#000000"
     transform="translate(-522.2035,481.42414)" />
  <text
     x="11.499929"
     y="41.700008"
     font-size="14.00"
     id="text325"
     style="font-size:14px;font-family:Arial;text-anchor:start">SyskitBasics::Compositions::ArmCartesianConstantCommandGenerator</text>
  <polygon
     points="16,-326.5 16,-326.5 16,-347.5 478,-347.5 478,-326.5 "
     id="polygon327"
     style="fill:none;stroke:#ffffff"
     transform="translate(-7.5000407,374.5)" />
  <path
     style="color:#000000;clip-rule:nonzero;display:inline;overflow:visible;visibility:visible;opacity:1;isolation:auto;mix-blend-mode:normal;color-interpolation:sRGB;color-interpolation-filters:linearRGB;solid-color:#000000;solid-opacity:1;fill:none;fill-opacity:1;fill-rule:nonzero;stroke:#000000;stroke-width:1;stroke-linecap:butt;stroke-linejoin:miter;stroke-miterlimit:4;stroke-dasharray:none;stroke-dashoffset:0;stroke-opacity:1;color-rendering:auto;image-rendering:auto;shape-rendering:auto;text-rendering:auto;enable-background:accumulate"
     d="m 556.9498,54.584179 21.7296,0 0,36.028871 -545.627861,0 0,68.80073"
     id="path4945"
     inkscape:connector-curvature="0"
     sodipodi:nodetypes="ccccc" />
</svg>
