<?xml version="1.0" encoding="UTF-8" standalone="no"?>
<!DOCTYPE svg PUBLIC "-//W3C//DTD SVG 1.1//EN"
 "http://www.w3.org/Graphics/SVG/1.1/DTD/svg11.dtd">
<!-- Generated by graphviz version 2.38.0 (20140413.2041)
 -->
<!-- Title: %3 Pages: 1 -->
<svg width="409.2pt" height="108.6pt"
 viewBox="0.00 0.00 681.52 181.00" xmlns="http://www.w3.org/2000/svg" xmlns:xlink="http://www.w3.org/1999/xlink">
<g id="graph0" class="graph" transform="scale(1 1) rotate(0) translate(4 177)">
<title>%3</title>
<polygon fill="white" stroke="none" points="-4,4 -4,-177 677.517,-177 677.517,4 -4,4"/>
<g id="clust1" class="cluster"><title>cluster_object_64733240</title>
<g id="a_clust1"><a xlink:href="plan://syskit/object_64733240">
<polygon fill="none" stroke="black" points="8,-8 8,-165 665.517,-165 665.517,-8 8,-8"/>
</a>
</g>
</g>
<!-- frames_dev_gpsrobot__gpsobject_64733240 -->
<g id="node1" class="node"><title>frames_dev_gpsrobot__gpsobject_64733240</title>
<ellipse fill="none" stroke="black" cx="131.258" cy="-146" rx="115.017" ry="10.7143"/>
<text text-anchor="middle" x="131.258" y="-142.3" font-family="Arial" font-size="14.00">dev(gps).from=robot::gps</text>
</g>
<!-- frames_dev_gpsrobot__gps_nwu_producerobject_64733240 -->
<g id="node3" class="node"><title>frames_dev_gpsrobot__gps_nwu_producerobject_64733240</title>
<ellipse fill="none" stroke="black" cx="286.017" cy="-146" rx="3.5" ry="3.5"/>
</g>
<!-- frames_dev_gpsrobot__gpsobject_64733240&#45;&gt;frames_dev_gpsrobot__gps_nwu_producerobject_64733240 -->
<g id="edge2" class="edge"><title>frames_dev_gpsrobot__gpsobject_64733240&#45;&gt;frames_dev_gpsrobot__gps_nwu_producerobject_64733240</title>
<path fill="none" stroke="black" d="M246.863,-146C263.632,-146 277.088,-146 282.475,-146"/>
</g>
<!-- frames_dev_gpsnwuobject_64733240 -->
<g id="node2" class="node"><title>frames_dev_gpsnwuobject_64733240</title>
<ellipse fill="none" stroke="black" cx="410.517" cy="-146" rx="74.9067" ry="10.7143"/>
<text text-anchor="middle" x="410.517" y="-142.3" font-family="Arial" font-size="14.00">dev(gps).to=nwu</text>
</g>
<!-- frames_dev_gpsrobot__gps_nwu_producerobject_64733240&#45;&gt;frames_dev_gpsnwuobject_64733240 -->
<g id="edge3" class="edge"><title>frames_dev_gpsrobot__gps_nwu_producerobject_64733240&#45;&gt;frames_dev_gpsnwuobject_64733240</title>
<path fill="none" stroke="black" d="M289.575,-146C295.038,-146 308.675,-146 324.883,-146"/>
<polygon fill="black" stroke="black" points="325.256,-149.5 335.256,-146 325.256,-142.5 325.256,-149.5"/>
</g>
<!-- frames_gpsobject_64733240 -->
<g id="node4" class="node"><title>frames_gpsobject_64733240</title>
<ellipse fill="none" stroke="black" cx="131.258" cy="-97" rx="68.6788" ry="10.7143"/>
<text text-anchor="middle" x="131.258" y="-93.3" font-family="Arial" font-size="14.00">gps=robot::gps</text>
</g>
<!-- frames_gps_utm_producerobject_64733240 -->
<g id="node6" class="node"><title>frames_gps_utm_producerobject_64733240</title>
<ellipse fill="none" stroke="black" cx="286.017" cy="-86" rx="3.5" ry="3.5"/>
</g>
<!-- frames_gpsobject_64733240&#45;&gt;frames_gps_utm_producerobject_64733240 -->
<g id="edge6" class="edge"><title>frames_gpsobject_64733240&#45;&gt;frames_gps_utm_producerobject_64733240</title>
<path fill="none" stroke="black" d="M193.951,-92.5576C230.385,-89.934 271.452,-86.9768 282.282,-86.1969"/>
</g>
<!-- outputsobject_64733240 -->
<g id="node8" class="node"><title>outputsobject_64733240</title>
<polygon fill="none" stroke="black" points="531.517,-51 531.517,-80 657.517,-80 657.517,-51 531.517,-51"/>
<text text-anchor="start" x="538.517" y="-61.8" font-family="Arial" font-size="14.00">position_samples</text>
</g>
<!-- frames_gpsobject_64733240&#45;&gt;outputsobject_64733240 -->
<!-- frames_utmobject_64733240 -->
<g id="node5" class="node"><title>frames_utmobject_64733240</title>
<ellipse fill="none" stroke="black" cx="410.517" cy="-86" rx="40.1111" ry="10.7143"/>
<text text-anchor="middle" x="410.517" y="-82.3" font-family="Arial" font-size="14.00">utm=nwu</text>
</g>
<!-- frames_utmobject_64733240&#45;&gt;outputsobject_64733240 -->
<!-- frames_gps_utm_producerobject_64733240&#45;&gt;frames_utmobject_64733240 -->
<g id="edge7" class="edge"><title>frames_gps_utm_producerobject_64733240&#45;&gt;frames_utmobject_64733240</title>
<path fill="none" stroke="black" d="M289.575,-86C298.796,-86 331.301,-86 360.149,-86"/>
<polygon fill="black" stroke="black" points="360.157,-89.5001 370.157,-86 360.157,-82.5001 360.157,-89.5001"/>
</g>
<!-- frames_gps_utm_producerobject_64733240&#45;&gt;outputsobject_64733240 -->
<g id="edge8" class="edge"><title>frames_gps_utm_producerobject_64733240&#45;&gt;outputsobject_64733240:position_samples</title>
<path fill="none" stroke="black" d="M287.927,-82.7633C291.061,-72.3184 302.501,-39.4639 325.517,-27 410.642,19.0981 532.305,-33.5988 576.582,-55.942"/>
</g>
<!-- labelobject_64733240 -->
<g id="node7" class="node"><title>labelobject_64733240</title>
<g id="a_node7"><a xlink:href="plan://syskit/object_64733240" xlink:title="&lt;TABLE&gt;">
<text text-anchor="start" x="328.517" y="-42.8" font-family="Arial" font-size="14.00">OroGen::Gps::GPSDTask</text>
<polygon fill="none" stroke="white" points="325.517,-36.5 325.517,-57.5 495.517,-57.5 495.517,-36.5 325.517,-36.5"/>
</a>
</g>
</g>
<!-- labelobject_64733240&#45;&gt;outputsobject_64733240 -->
</g>
</svg>
