<?xml version="1.0" encoding="UTF-8" standalone="no"?>
<!DOCTYPE svg PUBLIC "-//W3C//DTD SVG 1.1//EN"
 "http://www.w3.org/Graphics/SVG/1.1/DTD/svg11.dtd">
<!-- Generated by graphviz version 2.38.0 (20140413.2041)
 -->
<!-- Title: %3 Pages: 1 -->
<svg width="324.59999999999997pt" height="114.0pt"
 viewBox="0.00 0.00 541.00 190.00" xmlns="http://www.w3.org/2000/svg" xmlns:xlink="http://www.w3.org/1999/xlink">
<g id="graph0" class="graph" transform="scale(1 1) rotate(0) translate(4 186)">
<title>%3</title>
<polygon fill="white" stroke="none" points="-4,4 -4,-186 537,-186 537,4 -4,4"/>
<g id="clust1" class="cluster"><title>cluster_object_38532880</title>
<g id="a_clust1"><a xlink:href="plan://syskit/object_38532880">
<polygon fill="none" stroke="red" points="8,-8 8,-174 525,-174 525,-8 8,-8"/>
</a>
</g>
</g>
<!-- labelobject_38532880 -->
<g id="node1" class="node"><title>labelobject_38532880</title>
<g id="a_node1"><a xlink:href="plan://syskit/object_38532880" xlink:title="&lt;TABLE&gt;">
<text text-anchor="start" x="19" y="-96.8" font-family="Arial" font-size="14.00">CommonModels::Services::Pose</text>
<text text-anchor="start" x="103" y="-77.8" font-family="Arial" font-size="14.00">Roles</text>
<polygon fill="none" stroke="white" points="16,-71 16,-111 232,-111 232,-71 16,-71"/>
</a>
</g>
</g>
<!-- outputsobject_38532880 -->
<g id="node2" class="node"><title>outputsobject_38532880</title>
<g id="a_node2_0"><a xlink:href="link://metaruby/Types/base/samples/RigidBodyState_m" xlink:title="&lt;no documentation for this port&gt;">
<polygon fill="none" stroke="black" points="268.5,-116 268.5,-166 517.5,-166 517.5,-116 268.5,-116"/>
<text text-anchor="start" x="345.5" y="-147.8" font-family="Arial" font-size="14.00">pose_samples</text>
<text text-anchor="start" x="275.5" y="-126.8" font-family="Arial" font-size="14.00">Type</text>
<text text-anchor="start" x="314.5" y="-126.8" font-family="Arial" font-size="14.00">/base/samples/RigidBodyState</text>
</a>
</g>
<g id="a_node2_1"><a xlink:href="link://metaruby/Types/base/samples/RigidBodyState_m" xlink:title="&lt;no documentation for this port&gt;">
<polygon fill="none" stroke="black" points="268.5,-66 268.5,-116 517.5,-116 517.5,-66 268.5,-66"/>
<text text-anchor="start" x="337" y="-97.8" font-family="Arial" font-size="14.00">position_samples</text>
<text text-anchor="start" x="275.5" y="-76.8" font-family="Arial" font-size="14.00">Type</text>
<text text-anchor="start" x="314.5" y="-76.8" font-family="Arial" font-size="14.00">/base/samples/RigidBodyState</text>
</a>
</g>
<g id="a_node2_2"><a xlink:href="link://metaruby/Types/base/samples/RigidBodyState_m" xlink:title="&lt;no documentation for this port&gt;">
<polygon fill="none" stroke="black" points="268.5,-16 268.5,-66 517.5,-66 517.5,-16 268.5,-16"/>
<text text-anchor="start" x="329" y="-47.8" font-family="Arial" font-size="14.00">orientation_samples</text>
<text text-anchor="start" x="275.5" y="-26.8" font-family="Arial" font-size="14.00">Type</text>
<text text-anchor="start" x="314.5" y="-26.8" font-family="Arial" font-size="14.00">/base/samples/RigidBodyState</text>
</a>
</g>
</g>
<!-- labelobject_38532880&#45;&gt;outputsobject_38532880 -->
</g>
</svg>
