<?xml version="1.0" encoding="UTF-8" standalone="no"?>
<!DOCTYPE svg PUBLIC "-//W3C//DTD SVG 1.1//EN"
 "http://www.w3.org/Graphics/SVG/1.1/DTD/svg11.dtd">
<!-- Generated by graphviz version 2.38.0 (20140413.2041)
 -->
<!-- Title: %3 Pages: 1 -->
<svg width="640.8pt" height="131.4pt"
 viewBox="0.00 0.00 1068.46 219.00" xmlns="http://www.w3.org/2000/svg" xmlns:xlink="http://www.w3.org/1999/xlink">
<g id="graph0" class="graph" transform="scale(1 1) rotate(0) translate(4 215)">
<title>%3</title>
<polygon fill="white" stroke="none" points="-4,4 -4,-215 1064.46,-215 1064.46,4 -4,4"/>
<g id="clust1" class="cluster"><title>cluster_object_58976680</title>
<g id="a_clust1"><a xlink:href="plan://syskit/object_58976680">
<polygon fill="none" stroke="black" points="8,-8 8,-203 1052.46,-203 1052.46,-8 8,-8"/>
</a>
</g>
</g>
<!-- frames_imuobject_58976680 -->
<g id="node1" class="node"><title>frames_imuobject_58976680</title>
<ellipse fill="none" stroke="red" cx="320.731" cy="-33" rx="27" ry="10.7143"/>
<text text-anchor="middle" x="320.731" y="-29.3" font-family="Arial" font-size="14.00">imu=</text>
</g>
<!-- frames_imu_body_producerobject_58976680 -->
<g id="node5" class="node"><title>frames_imu_body_producerobject_58976680</title>
<ellipse fill="none" stroke="black" cx="442.963" cy="-40" rx="3.5" ry="3.5"/>
</g>
<!-- frames_imuobject_58976680&#45;&gt;frames_imu_body_producerobject_58976680 -->
<g id="edge11" class="edge"><title>frames_imuobject_58976680&#45;&gt;frames_imu_body_producerobject_58976680</title>
<path fill="none" stroke="black" d="M347.524,-34.5017C378.436,-36.3014 427.557,-39.1613 439.354,-39.8481"/>
</g>
<!-- outputsobject_58976680 -->
<g id="node10" class="node"><title>outputsobject_58976680</title>
<polygon fill="none" stroke="black" points="808.463,-163 808.463,-192 1044.46,-192 1044.46,-163 808.463,-163"/>
<text text-anchor="start" x="871.463" y="-173.8" font-family="Arial" font-size="14.00">velocity_samples</text>
<polygon fill="none" stroke="black" points="808.463,-134 808.463,-163 1044.46,-163 1044.46,-134 808.463,-134"/>
<text text-anchor="start" x="815.963" y="-144.8" font-family="Arial" font-size="14.00">transformer_stream_aligner_status</text>
<polygon fill="none" stroke="black" points="808.463,-105 808.463,-134 1044.46,-134 1044.46,-105 808.463,-105"/>
<text text-anchor="start" x="866.963" y="-115.8" font-family="Arial" font-size="14.00">transformer_status</text>
<polygon fill="none" stroke="black" points="808.463,-76 808.463,-105 1044.46,-105 1044.46,-76 808.463,-76"/>
<text text-anchor="start" x="910.963" y="-86.8" font-family="Arial" font-size="14.00">state</text>
</g>
<!-- frames_imuobject_58976680&#45;&gt;outputsobject_58976680 -->
<!-- frames_bodyobject_58976680 -->
<g id="node2" class="node"><title>frames_bodyobject_58976680</title>
<ellipse fill="none" stroke="red" cx="627.463" cy="-104" rx="28.0702" ry="10.7143"/>
<text text-anchor="middle" x="627.463" y="-100.3" font-family="Arial" font-size="14.00">body=</text>
</g>
<!-- frames_bodyobject_58976680&#45;&gt;outputsobject_58976680 -->
<!-- frames_dvlobject_58976680 -->
<g id="node3" class="node"><title>frames_dvlobject_58976680</title>
<ellipse fill="none" stroke="red" cx="320.731" cy="-113" rx="27" ry="10.7143"/>
<text text-anchor="middle" x="320.731" y="-109.3" font-family="Arial" font-size="14.00">dvl=</text>
</g>
<!-- frames_dvl_body_producerobject_58976680 -->
<g id="node6" class="node"><title>frames_dvl_body_producerobject_58976680</title>
<ellipse fill="none" stroke="black" cx="442.963" cy="-106" rx="3.5" ry="3.5"/>
</g>
<!-- frames_dvlobject_58976680&#45;&gt;frames_dvl_body_producerobject_58976680 -->
<g id="edge13" class="edge"><title>frames_dvlobject_58976680&#45;&gt;frames_dvl_body_producerobject_58976680</title>
<path fill="none" stroke="black" d="M347.524,-111.498C378.436,-109.699 427.557,-106.839 439.354,-106.152"/>
</g>
<!-- frames_dvlobject_58976680&#45;&gt;outputsobject_58976680 -->
<!-- frames_pressure_sensorobject_58976680 -->
<g id="node4" class="node"><title>frames_pressure_sensorobject_58976680</title>
<ellipse fill="none" stroke="red" cx="320.731" cy="-152" rx="82.9636" ry="10.7143"/>
<text text-anchor="middle" x="320.731" y="-148.3" font-family="Arial" font-size="14.00">pressure_sensor=</text>
</g>
<!-- frames_pressure_sensor_body_producerobject_58976680 -->
<g id="node7" class="node"><title>frames_pressure_sensor_body_producerobject_58976680</title>
<ellipse fill="none" stroke="black" cx="442.963" cy="-131" rx="3.5" ry="3.5"/>
</g>
<!-- frames_pressure_sensorobject_58976680&#45;&gt;frames_pressure_sensor_body_producerobject_58976680 -->
<g id="edge15" class="edge"><title>frames_pressure_sensorobject_58976680&#45;&gt;frames_pressure_sensor_body_producerobject_58976680</title>
<path fill="none" stroke="black" d="M370.634,-143.458C398.72,-138.553 430.191,-133.056 439.34,-131.458"/>
</g>
<!-- frames_pressure_sensorobject_58976680&#45;&gt;outputsobject_58976680 -->
<!-- frames_imu_body_producerobject_58976680&#45;&gt;frames_bodyobject_58976680 -->
<g id="edge12" class="edge"><title>frames_imu_body_producerobject_58976680&#45;&gt;frames_bodyobject_58976680</title>
<path fill="none" stroke="black" d="M446.543,-40.9047C462.607,-46.5382 549.767,-77.1039 596.622,-93.5351"/>
<polygon fill="black" stroke="black" points="595.646,-96.9017 606.24,-96.9083 597.962,-90.2961 595.646,-96.9017"/>
</g>
<!-- frames_dvl_body_producerobject_58976680&#45;&gt;frames_bodyobject_58976680 -->
<g id="edge14" class="edge"><title>frames_dvl_body_producerobject_58976680&#45;&gt;frames_bodyobject_58976680</title>
<path fill="none" stroke="black" d="M446.543,-105.972C461.76,-105.805 540.767,-104.939 588.885,-104.412"/>
<polygon fill="black" stroke="black" points="588.979,-107.911 598.94,-104.302 588.902,-100.912 588.979,-107.911"/>
</g>
<!-- frames_pressure_sensor_body_producerobject_58976680&#45;&gt;frames_bodyobject_58976680 -->
<g id="edge16" class="edge"><title>frames_pressure_sensor_body_producerobject_58976680&#45;&gt;frames_bodyobject_58976680</title>
<path fill="none" stroke="black" d="M446.543,-130.618C461.961,-128.337 542.874,-116.367 590.783,-109.279"/>
<polygon fill="black" stroke="black" points="591.376,-112.729 600.757,-107.803 590.352,-105.804 591.376,-112.729"/>
</g>
<!-- labelobject_58976680 -->
<g id="node8" class="node"><title>labelobject_58976680</title>
<g id="a_node8"><a xlink:href="plan://syskit/object_58976680" xlink:title="&lt;TABLE&gt;">
<text text-anchor="start" x="485.963" y="-179.8" font-family="Arial" font-size="14.00">OroGen::UwvKalmanFilters::VelocityProvider</text>
<polygon fill="none" stroke="white" points="482.463,-173.5 482.463,-194.5 772.463,-194.5 772.463,-173.5 482.463,-173.5"/>
</a>
</g>
</g>
<!-- labelobject_58976680&#45;&gt;outputsobject_58976680 -->
<!-- inputsobject_58976680 -->
<g id="node9" class="node"><title>inputsobject_58976680</title>
<polygon fill="none" stroke="black" points="16,-156 16,-185 202,-185 202,-156 16,-156"/>
<text text-anchor="start" x="68" y="-166.8" font-family="Arial" font-size="14.00">body_efforts</text>
<polygon fill="none" stroke="black" points="16,-127 16,-156 202,-156 202,-127 16,-127"/>
<text text-anchor="start" x="41" y="-137.8" font-family="Arial" font-size="14.00">dvl_velocity_samples</text>
<polygon fill="none" stroke="black" points="16,-98 16,-127 202,-127 202,-98 16,-98"/>
<text text-anchor="start" x="40.5" y="-108.8" font-family="Arial" font-size="14.00">imu_sensor_samples</text>
<polygon fill="none" stroke="black" points="16,-69 16,-98 202,-98 202,-69 16,-69"/>
<text text-anchor="start" x="23.5" y="-79.8" font-family="Arial" font-size="14.00">pressure_sensor_samples</text>
<polygon fill="none" stroke="black" points="16,-40 16,-69 202,-69 202,-40 16,-40"/>
<text text-anchor="start" x="29.5" y="-50.8" font-family="Arial" font-size="14.00">dynamic_transformations</text>
</g>
<!-- inputsobject_58976680&#45;&gt;frames_imuobject_58976680 -->
<!-- inputsobject_58976680&#45;&gt;frames_bodyobject_58976680 -->
<!-- inputsobject_58976680&#45;&gt;frames_bodyobject_58976680 -->
<g id="edge17" class="edge"><title>inputsobject_58976680:body_efforts&#45;&gt;frames_bodyobject_58976680</title>
<path fill="none" stroke="black" d="M198,-171C236.959,-171 204.755,-113.313 238,-93 268.657,-74.2682 517.223,-94.3223 599.86,-101.588"/>
</g>
<!-- inputsobject_58976680&#45;&gt;frames_dvlobject_58976680 -->
<!-- inputsobject_58976680&#45;&gt;frames_pressure_sensorobject_58976680 -->
<!-- inputsobject_58976680&#45;&gt;labelobject_58976680 -->
</g>
</svg>
