<?xml version="1.0" encoding="UTF-8" standalone="no"?>
<!DOCTYPE svg PUBLIC "-//W3C//DTD SVG 1.1//EN"
 "http://www.w3.org/Graphics/SVG/1.1/DTD/svg11.dtd">
<!-- Generated by graphviz version 2.38.0 (20140413.2041)
 -->
<!-- Title: %3 Pages: 1 -->
<svg width="1711.8pt" height="372.0pt"
 viewBox="0.00 0.00 2853.26 620.00" xmlns="http://www.w3.org/2000/svg" xmlns:xlink="http://www.w3.org/1999/xlink">
<g id="graph0" class="graph" transform="scale(1 1) rotate(0) translate(4 616)">
<title>%3</title>
<polygon fill="white" stroke="none" points="-4,4 -4,-616 2849.26,-616 2849.26,4 -4,4"/>
<g id="clust1" class="cluster"><title>cluster_object_143246500</title>
<g id="a_clust1"><a xlink:href="plan://syskit/object_143246500">
<polygon fill="none" stroke="black" points="1480.73,-81 1480.73,-328 2837.26,-328 2837.26,-81 1480.73,-81"/>
</a>
</g>
</g>
<g id="clust2" class="cluster"><title>cluster_object_143097680</title>
<g id="a_clust2"><a xlink:href="plan://syskit/object_143097680">
<polygon fill="none" stroke="black" points="8,-8 8,-54 594.366,-54 594.366,-8 8,-8"/>
</a>
</g>
</g>
<g id="clust3" class="cluster"><title>cluster_object_143092500</title>
<g id="a_clust3"><a xlink:href="plan://syskit/object_143092500">
<polygon fill="none" stroke="black" points="808.732,-8 808.732,-54 1437.73,-54 1437.73,-8 808.732,-8"/>
</a>
</g>
</g>
<g id="clust4" class="cluster"><title>cluster_object_143071000</title>
<g id="a_clust4"><a xlink:href="plan://syskit/object_143071000">
<polygon fill="none" stroke="black" points="367.56,-426 367.56,-604 1460.73,-604 1460.73,-426 367.56,-426"/>
</a>
</g>
</g>
<g id="clust5" class="cluster"><title>cluster_object_143064320</title>
<g id="a_clust5"><a xlink:href="plan://syskit/object_143064320">
<polygon fill="none" stroke="black" points="282,-62 282,-418 1451.73,-418 1451.73,-62 282,-62"/>
</a>
</g>
</g>
<!-- outputsobject_143097680 -->
<g id="node1" class="node"><title>outputsobject_143097680</title>
<polygon fill="none" stroke="black" points="484.366,-16 484.366,-45 586.366,-45 586.366,-16 484.366,-16"/>
<text text-anchor="start" x="491.366" y="-26.8" font-family="Arial" font-size="14.00">joint_samples</text>
</g>
<!-- inputsobject_143092500 -->
<g id="node2" class="node"><title>inputsobject_143092500</title>
<polygon fill="none" stroke="black" points="816.732,-16 816.732,-45 928.732,-45 928.732,-16 816.732,-16"/>
<text text-anchor="start" x="824.232" y="-26.8" font-family="Arial" font-size="14.00">thruster_forces</text>
</g>
<!-- outputsobject_143097680&#45;&gt;inputsobject_143092500 -->
<g id="edge1" class="edge"><title>outputsobject_143097680:joint_samples&#45;&gt;inputsobject_143092500:thruster_forces</title>
<path fill="none" stroke="black" d="M581.595,-30C640.909,-30 745.17,-30 811.228,-30"/>
<polygon fill="black" stroke="black" points="811.489,-33.5001 821.489,-30 811.489,-26.5001 811.489,-33.5001"/>
</g>
<!-- labelobject_143092500 -->
<g id="node21" class="node"><title>labelobject_143092500</title>
<g id="a_node21"><a xlink:href="plan://syskit/object_143092500" xlink:title="&lt;TABLE&gt;">
<text text-anchor="start" x="968.232" y="-26.8" font-family="Arial" font-size="14.00">OroGen::AuvControl::ThrusterForce2BodyEffort</text>
<polygon fill="none" stroke="white" points="964.732,-20.5 964.732,-41.5 1274.73,-41.5 1274.73,-20.5 964.732,-20.5"/>
</a>
</g>
</g>
<!-- inputsobject_143092500&#45;&gt;labelobject_143092500 -->
<!-- outputsobject_143092500 -->
<g id="node3" class="node"><title>outputsobject_143092500</title>
<polygon fill="none" stroke="black" points="1333.73,-16 1333.73,-45 1429.73,-45 1429.73,-16 1333.73,-16"/>
<text text-anchor="start" x="1340.73" y="-26.8" font-family="Arial" font-size="14.00">body_efforts</text>
</g>
<!-- inputsobject_143246500 -->
<g id="node4" class="node"><title>inputsobject_143246500</title>
<polygon fill="none" stroke="black" points="1488.73,-258 1488.73,-287 1674.73,-287 1674.73,-258 1488.73,-258"/>
<text text-anchor="start" x="1540.73" y="-268.8" font-family="Arial" font-size="14.00">body_efforts</text>
<polygon fill="none" stroke="black" points="1488.73,-229 1488.73,-258 1674.73,-258 1674.73,-229 1488.73,-229"/>
<text text-anchor="start" x="1513.73" y="-239.8" font-family="Arial" font-size="14.00">dvl_velocity_samples</text>
<polygon fill="none" stroke="black" points="1488.73,-200 1488.73,-229 1674.73,-229 1674.73,-200 1488.73,-200"/>
<text text-anchor="start" x="1513.23" y="-210.8" font-family="Arial" font-size="14.00">imu_sensor_samples</text>
<polygon fill="none" stroke="black" points="1488.73,-171 1488.73,-200 1674.73,-200 1674.73,-171 1488.73,-171"/>
<text text-anchor="start" x="1496.23" y="-181.8" font-family="Arial" font-size="14.00">pressure_sensor_samples</text>
</g>
<!-- outputsobject_143092500&#45;&gt;inputsobject_143246500 -->
<g id="edge2" class="edge"><title>outputsobject_143092500:body_efforts&#45;&gt;inputsobject_143246500:body_efforts</title>
<path fill="none" stroke="black" d="M1424.97,-36.3735C1438.26,-40.4397 1451.79,-47.0981 1460.73,-58 1488.97,-92.4301 1451.29,-246.098 1483.07,-269.899"/>
<polygon fill="black" stroke="black" points="1482.14,-273.276 1492.73,-273 1484.28,-266.611 1482.14,-273.276"/>
</g>
<!-- frames_imuobject_143246500 -->
<g id="node7" class="node"><title>frames_imuobject_143246500</title>
<ellipse fill="none" stroke="black" cx="1910.14" cy="-269" rx="77.1494" ry="10.7143"/>
<text text-anchor="middle" x="1910.14" y="-265.3" font-family="Arial" font-size="14.00">imu=flat_fish::kvh</text>
</g>
<!-- inputsobject_143246500&#45;&gt;frames_imuobject_143246500 -->
<!-- inputsobject_143246500&#45;&gt;frames_imuobject_143246500 -->
<g id="edge44" class="edge"><title>inputsobject_143246500:imu_sensor_samples&#45;&gt;frames_imuobject_143246500</title>
<path fill="none" stroke="black" d="M1670.73,-214C1694.35,-214 1689.06,-239.591 1710.73,-249 1749.95,-266.029 1797.5,-271.282 1836.22,-272.158"/>
</g>
<!-- frames_bodyobject_143246500 -->
<g id="node8" class="node"><title>frames_bodyobject_143246500</title>
<ellipse fill="none" stroke="red" cx="2333.54" cy="-182" rx="28.0702" ry="10.7143"/>
<text text-anchor="middle" x="2333.54" y="-178.3" font-family="Arial" font-size="14.00">body=</text>
</g>
<!-- inputsobject_143246500&#45;&gt;frames_bodyobject_143246500 -->
<!-- frames_dvlobject_143246500 -->
<g id="node9" class="node"><title>frames_dvlobject_143246500</title>
<ellipse fill="none" stroke="black" cx="1910.14" cy="-229" rx="72.25" ry="10.7143"/>
<text text-anchor="middle" x="1910.14" y="-225.3" font-family="Arial" font-size="14.00">dvl=flat_fish::dvl</text>
</g>
<!-- inputsobject_143246500&#45;&gt;frames_dvlobject_143246500 -->
<!-- frames_pressure_sensorobject_143246500 -->
<g id="node10" class="node"><title>frames_pressure_sensorobject_143246500</title>
<ellipse fill="none" stroke="black" cx="1910.14" cy="-150" rx="199.308" ry="10.7143"/>
<text text-anchor="middle" x="1910.14" y="-146.3" font-family="Arial" font-size="14.00">pressure_sensor=flat_fish::pressure_sensor</text>
</g>
<!-- inputsobject_143246500&#45;&gt;frames_pressure_sensorobject_143246500 -->
<!-- frames_targetobject_143246500 -->
<g id="node11" class="node"><title>frames_targetobject_143246500</title>
<ellipse fill="none" stroke="black" cx="2613.4" cy="-111" rx="55.7232" ry="10.7143"/>
<text text-anchor="middle" x="2613.4" y="-107.3" font-family="Arial" font-size="14.00">target=world</text>
</g>
<!-- inputsobject_143246500&#45;&gt;frames_targetobject_143246500 -->
<!-- frames_pressure_sensor_target_producerobject_143246500 -->
<g id="node16" class="node"><title>frames_pressure_sensor_target_producerobject_143246500</title>
<ellipse fill="none" stroke="black" cx="2149.04" cy="-113" rx="3.5" ry="3.5"/>
</g>
<!-- inputsobject_143246500&#45;&gt;frames_pressure_sensor_target_producerobject_143246500 -->
<g id="edge39" class="edge"><title>inputsobject_143246500:pressure_sensor_samples&#45;&gt;frames_pressure_sensor_target_producerobject_143246500</title>
<path fill="none" stroke="black" d="M1670.73,-185C1700.96,-185 1684.07,-144.236 1710.73,-130 1792.17,-86.5197 2113.02,-110.267 2145.4,-112.791"/>
</g>
<!-- frames_dvl_dvl_producerobject_143246500 -->
<g id="node17" class="node"><title>frames_dvl_dvl_producerobject_143246500</title>
<ellipse fill="none" stroke="black" cx="2149.04" cy="-251" rx="3.5" ry="3.5"/>
</g>
<!-- inputsobject_143246500&#45;&gt;frames_dvl_dvl_producerobject_143246500 -->
<g id="edge42" class="edge"><title>inputsobject_143246500:dvl_velocity_samples&#45;&gt;frames_dvl_dvl_producerobject_143246500</title>
<path fill="none" stroke="black" d="M1670.73,-244C1697.49,-244 1686.32,-278.038 1710.73,-289 1872.42,-361.611 1945.56,-356.294 2109.54,-289 2127.61,-281.584 2141.73,-261.133 2146.39,-253.725"/>
</g>
<!-- labelobject_143246500 -->
<g id="node18" class="node"><title>labelobject_143246500</title>
<g id="a_node18"><a xlink:href="plan://syskit/object_143246500" xlink:title="&lt;TABLE&gt;">
<text text-anchor="start" x="2192.04" y="-304.8" font-family="Arial" font-size="14.00">OroGen::UwvKalmanFilters::VelocityProvider</text>
<polygon fill="none" stroke="white" points="2188.54,-298.5 2188.54,-319.5 2478.54,-319.5 2478.54,-298.5 2188.54,-298.5"/>
</a>
</g>
</g>
<!-- inputsobject_143246500&#45;&gt;labelobject_143246500 -->
<!-- outputsobject_143071000 -->
<g id="node5" class="node"><title>outputsobject_143071000</title>
<polygon fill="none" stroke="black" points="1310.73,-480 1310.73,-509 1452.73,-509 1452.73,-480 1310.73,-480"/>
<text text-anchor="start" x="1339.23" y="-490.8" font-family="Arial" font-size="14.00">imu_samples</text>
<polygon fill="none" stroke="black" points="1310.73,-451 1310.73,-480 1452.73,-480 1452.73,-451 1310.73,-451"/>
<text text-anchor="start" x="1317.73" y="-461.8" font-family="Arial" font-size="14.00">orientation_samples</text>
</g>
<!-- outputsobject_143071000&#45;&gt;inputsobject_143246500 -->
<g id="edge3" class="edge"><title>outputsobject_143071000:imu_samples&#45;&gt;inputsobject_143246500:imu_sensor_samples</title>
<path fill="none" stroke="black" d="M1448.73,-495C1508.23,-495 1438.68,-245.965 1483.06,-216.781"/>
<polygon fill="black" stroke="black" points="1484.09,-220.128 1492.73,-214 1482.15,-213.401 1484.09,-220.128"/>
</g>
<!-- outputsobject_143064320 -->
<g id="node6" class="node"><title>outputsobject_143064320</title>
<polygon fill="none" stroke="black" points="1319.73,-229 1319.73,-258 1443.73,-258 1443.73,-229 1319.73,-229"/>
<text text-anchor="start" x="1344.73" y="-239.8" font-family="Arial" font-size="14.00">dvl_velocity</text>
<polygon fill="none" stroke="black" points="1319.73,-200 1319.73,-229 1443.73,-229 1443.73,-200 1319.73,-200"/>
<text text-anchor="start" x="1334.23" y="-210.8" font-family="Arial" font-size="14.00">pose_samples</text>
<polygon fill="none" stroke="black" points="1319.73,-171 1319.73,-200 1443.73,-200 1443.73,-171 1319.73,-171"/>
<text text-anchor="start" x="1327.23" y="-181.8" font-family="Arial" font-size="14.00">pressure_sensor</text>
</g>
<!-- outputsobject_143064320&#45;&gt;inputsobject_143246500 -->
<g id="edge4" class="edge"><title>outputsobject_143064320:dvl_velocity&#45;&gt;inputsobject_143246500:dvl_velocity_samples</title>
<path fill="none" stroke="black" d="M1439.73,-244C1459.42,-244 1466.77,-244 1482.41,-244"/>
<polygon fill="black" stroke="black" points="1482.73,-247.5 1492.73,-244 1482.73,-240.5 1482.73,-247.5"/>
</g>
<!-- outputsobject_143064320&#45;&gt;inputsobject_143246500 -->
<g id="edge5" class="edge"><title>outputsobject_143064320:pressure_sensor&#45;&gt;inputsobject_143246500:pressure_sensor_samples</title>
<path fill="none" stroke="black" d="M1439.73,-185C1459.42,-185 1466.77,-185 1482.41,-185"/>
<polygon fill="black" stroke="black" points="1482.73,-188.5 1492.73,-185 1482.73,-181.5 1482.73,-188.5"/>
</g>
<!-- frames_imu_body_producerobject_143246500 -->
<g id="node12" class="node"><title>frames_imu_body_producerobject_143246500</title>
<ellipse fill="none" stroke="black" cx="2149.04" cy="-276" rx="3.5" ry="3.5"/>
</g>
<!-- frames_imuobject_143246500&#45;&gt;frames_imu_body_producerobject_143246500 -->
<g id="edge29" class="edge"><title>frames_imuobject_143246500&#45;&gt;frames_imu_body_producerobject_143246500</title>
<path fill="none" stroke="black" d="M1985.77,-271.205C2048.16,-273.049 2129.43,-275.45 2145.29,-275.919"/>
</g>
<!-- outputsobject_143246500 -->
<g id="node19" class="node"><title>outputsobject_143246500</title>
<polygon fill="none" stroke="black" points="2705.26,-167 2705.26,-196 2829.26,-196 2829.26,-167 2705.26,-167"/>
<text text-anchor="start" x="2712.26" y="-177.8" font-family="Arial" font-size="14.00">velocity_samples</text>
</g>
<!-- frames_imuobject_143246500&#45;&gt;outputsobject_143246500 -->
<!-- frames_body_target_producerobject_143246500 -->
<g id="node15" class="node"><title>frames_body_target_producerobject_143246500</title>
<ellipse fill="none" stroke="black" cx="2518.04" cy="-138" rx="3.5" ry="3.5"/>
</g>
<!-- frames_bodyobject_143246500&#45;&gt;frames_body_target_producerobject_143246500 -->
<g id="edge35" class="edge"><title>frames_bodyobject_143246500&#45;&gt;frames_body_target_producerobject_143246500</title>
<path fill="none" stroke="black" d="M2357.65,-176.427C2402.16,-165.698 2496.9,-142.856 2514.27,-138.667"/>
</g>
<!-- frames_bodyobject_143246500&#45;&gt;outputsobject_143246500 -->
<!-- frames_dvl_body_producerobject_143246500 -->
<g id="node13" class="node"><title>frames_dvl_body_producerobject_143246500</title>
<ellipse fill="none" stroke="black" cx="2149.04" cy="-205" rx="3.5" ry="3.5"/>
</g>
<!-- frames_dvlobject_143246500&#45;&gt;frames_dvl_body_producerobject_143246500 -->
<g id="edge31" class="edge"><title>frames_dvlobject_143246500&#45;&gt;frames_dvl_body_producerobject_143246500</title>
<path fill="none" stroke="black" d="M1970,-223.037C2033.59,-216.595 2128.14,-207.016 2145.32,-205.276"/>
</g>
<!-- frames_dvlobject_143246500&#45;&gt;frames_dvl_dvl_producerobject_143246500 -->
<g id="edge40" class="edge"><title>frames_dvlobject_143246500&#45;&gt;frames_dvl_dvl_producerobject_143246500</title>
<path fill="none" stroke="black" d="M1982.54,-229.378C2045.75,-233.841 2130.32,-243.274 2145.62,-249.262"/>
</g>
<!-- frames_dvlobject_143246500&#45;&gt;outputsobject_143246500 -->
<!-- frames_pressure_sensor_body_producerobject_143246500 -->
<g id="node14" class="node"><title>frames_pressure_sensor_body_producerobject_143246500</title>
<ellipse fill="none" stroke="black" cx="2149.04" cy="-159" rx="3.5" ry="3.5"/>
</g>
<!-- frames_pressure_sensorobject_143246500&#45;&gt;frames_pressure_sensor_body_producerobject_143246500 -->
<g id="edge33" class="edge"><title>frames_pressure_sensorobject_143246500&#45;&gt;frames_pressure_sensor_body_producerobject_143246500</title>
<path fill="none" stroke="black" d="M2072.76,-156.14C2107.37,-157.455 2136.28,-158.553 2145.2,-158.892"/>
</g>
<!-- frames_pressure_sensorobject_143246500&#45;&gt;frames_pressure_sensor_target_producerobject_143246500 -->
<g id="edge37" class="edge"><title>frames_pressure_sensorobject_143246500&#45;&gt;frames_pressure_sensor_target_producerobject_143246500</title>
<path fill="none" stroke="black" d="M1985.74,-140.17C2023.01,-134.986 2068.75,-128.213 2109.54,-121 2122.99,-118.623 2138.92,-115.077 2145.25,-113.64"/>
</g>
<!-- frames_pressure_sensorobject_143246500&#45;&gt;outputsobject_143246500 -->
<!-- frames_targetobject_143246500&#45;&gt;outputsobject_143246500 -->
<!-- frames_imu_body_producerobject_143246500&#45;&gt;frames_bodyobject_143246500 -->
<g id="edge30" class="edge"><title>frames_imu_body_producerobject_143246500&#45;&gt;frames_bodyobject_143246500</title>
<path fill="none" stroke="black" d="M2152.35,-274.811C2168.14,-266.677 2261.03,-218.832 2306.92,-195.198"/>
<polygon fill="black" stroke="black" points="2308.66,-198.236 2315.95,-190.545 2305.46,-192.013 2308.66,-198.236"/>
</g>
<!-- frames_dvl_body_producerobject_143246500&#45;&gt;frames_bodyobject_143246500 -->
<g id="edge32" class="edge"><title>frames_dvl_body_producerobject_143246500&#45;&gt;frames_bodyobject_143246500</title>
<path fill="none" stroke="black" d="M2152.62,-204.675C2168,-202.737 2248.53,-192.588 2296.48,-186.544"/>
<polygon fill="black" stroke="black" points="2296.99,-190.008 2306.47,-185.285 2296.12,-183.063 2296.99,-190.008"/>
</g>
<!-- frames_pressure_sensor_body_producerobject_143246500&#45;&gt;frames_bodyobject_143246500 -->
<g id="edge34" class="edge"><title>frames_pressure_sensor_body_producerobject_143246500&#45;&gt;frames_bodyobject_143246500</title>
<path fill="none" stroke="black" d="M2152.62,-159.325C2168,-161.263 2248.53,-171.412 2296.48,-177.456"/>
<polygon fill="black" stroke="black" points="2296.12,-180.937 2306.47,-178.715 2296.99,-173.992 2296.12,-180.937"/>
</g>
<!-- frames_body_target_producerobject_143246500&#45;&gt;frames_targetobject_143246500 -->
<g id="edge36" class="edge"><title>frames_body_target_producerobject_143246500&#45;&gt;frames_targetobject_143246500</title>
<path fill="none" stroke="black" d="M2521.73,-137.221C2529.29,-135.037 2551.46,-128.623 2571.99,-122.686"/>
<polygon fill="black" stroke="black" points="2573.23,-125.971 2581.87,-119.83 2571.29,-119.246 2573.23,-125.971"/>
</g>
<!-- frames_body_target_producerobject_143246500&#45;&gt;outputsobject_143246500 -->
<g id="edge43" class="edge"><title>frames_body_target_producerobject_143246500&#45;&gt;outputsobject_143246500:velocity_samples</title>
<path fill="none" stroke="black" d="M2521.54,-138.174C2535.94,-139.204 2609.89,-144.843 2669.26,-156 2691.65,-160.207 2716.53,-166.655 2735.48,-171.949"/>
</g>
<!-- frames_pressure_sensor_target_producerobject_143246500&#45;&gt;frames_targetobject_143246500 -->
<g id="edge38" class="edge"><title>frames_pressure_sensor_target_producerobject_143246500&#45;&gt;frames_targetobject_143246500</title>
<path fill="none" stroke="black" d="M2152.99,-112.987C2182.62,-112.859 2427.79,-111.799 2547.34,-111.281"/>
<polygon fill="black" stroke="black" points="2547.48,-114.781 2557.47,-111.238 2547.45,-107.781 2547.48,-114.781"/>
</g>
<!-- frames_dvl_dvl_producerobject_143246500&#45;&gt;frames_dvlobject_143246500 -->
<g id="edge41" class="edge"><title>frames_dvl_dvl_producerobject_143246500&#45;&gt;frames_dvlobject_143246500</title>
<path fill="none" stroke="black" d="M2145.75,-252.26C2129.02,-255.857 2024.53,-247.534 1960.77,-239.223"/>
<polygon fill="black" stroke="black" points="1960.9,-235.709 1950.52,-237.837 1959.96,-242.645 1960.9,-235.709"/>
</g>
<!-- labelobject_143246500&#45;&gt;outputsobject_143246500 -->
<!-- labelobject_143097680 -->
<g id="node20" class="node"><title>labelobject_143097680</title>
<g id="a_node20"><a xlink:href="plan://syskit/object_143097680" xlink:title="&lt;TABLE&gt;">
<text text-anchor="start" x="19" y="-26.8" font-family="Arial" font-size="14.00">OroGen::RockGazebo::ThrusterTask</text>
<polygon fill="none" stroke="white" points="16,-20.5 16,-41.5 254,-41.5 254,-20.5 16,-20.5"/>
</a>
</g>
</g>
<!-- labelobject_143097680&#45;&gt;outputsobject_143097680 -->
<!-- labelobject_143092500&#45;&gt;outputsobject_143092500 -->
<!-- frames_dev_imu_sensorflat_fish__kvhobject_143071000 -->
<g id="node22" class="node"><title>frames_dev_imu_sensorflat_fish__kvhobject_143071000</title>
<ellipse fill="none" stroke="black" cx="535.366" cy="-585" rx="159.612" ry="10.7143"/>
<text text-anchor="middle" x="535.366" y="-581.3" font-family="Arial" font-size="14.00">dev(imu_sensor).from=flat_fish::kvh</text>
</g>
<!-- frames_dev_imu_sensorflat_fish__kvh_world_producerobject_143071000 -->
<g id="node24" class="node"><title>frames_dev_imu_sensorflat_fish__kvh_world_producerobject_143071000</title>
<ellipse fill="none" stroke="black" cx="872.732" cy="-585" rx="3.5" ry="3.5"/>
</g>
<!-- frames_dev_imu_sensorflat_fish__kvhobject_143071000&#45;&gt;frames_dev_imu_sensorflat_fish__kvh_world_producerobject_143071000 -->
<g id="edge13" class="edge"><title>frames_dev_imu_sensorflat_fish__kvhobject_143071000&#45;&gt;frames_dev_imu_sensorflat_fish__kvh_world_producerobject_143071000</title>
<path fill="none" stroke="black" d="M695.21,-585C773.088,-585 853.516,-585 869.049,-585"/>
</g>
<!-- frames_dev_imu_sensorworldobject_143071000 -->
<g id="node23" class="node"><title>frames_dev_imu_sensorworldobject_143071000</title>
<ellipse fill="none" stroke="black" cx="1119.73" cy="-585" rx="116.845" ry="10.7143"/>
<text text-anchor="middle" x="1119.73" y="-581.3" font-family="Arial" font-size="14.00">dev(imu_sensor).to=world</text>
</g>
<!-- frames_dev_imu_sensorflat_fish__kvh_world_producerobject_143071000&#45;&gt;frames_dev_imu_sensorworldobject_143071000 -->
<g id="edge14" class="edge"><title>frames_dev_imu_sensorflat_fish__kvh_world_producerobject_143071000&#45;&gt;frames_dev_imu_sensorworldobject_143071000</title>
<path fill="none" stroke="black" d="M876.484,-585C888.781,-585 940.409,-585 992.862,-585"/>
<polygon fill="black" stroke="black" points="993.003,-588.5 1003,-585 993.003,-581.5 993.003,-588.5"/>
</g>
<!-- frames_sensorobject_143071000 -->
<g id="node25" class="node"><title>frames_sensorobject_143071000</title>
<ellipse fill="none" stroke="black" cx="535.366" cy="-495" rx="91.8478" ry="10.7143"/>
<text text-anchor="middle" x="535.366" y="-491.3" font-family="Arial" font-size="14.00">sensor=flat_fish::kvh</text>
</g>
<!-- frames_sensorobject_143071000&#45;&gt;outputsobject_143071000 -->
<!-- frames_sensorobject_143071000&#45;&gt;outputsobject_143071000 -->
<g id="edge50" class="edge"><title>frames_sensorobject_143071000&#45;&gt;outputsobject_143071000:imu_samples</title>
<path fill="none" stroke="black" d="M591.298,-503.484C672.631,-515.574 829.999,-537.163 964.732,-545 1033.5,-549 1212.64,-574.842 1274.73,-545 1300.38,-532.672 1286.27,-495 1314.73,-495"/>
</g>
<!-- frames_sensor_inertial_producerobject_143071000 -->
<g id="node27" class="node"><title>frames_sensor_inertial_producerobject_143071000</title>
<ellipse fill="none" stroke="black" cx="872.732" cy="-465" rx="3.5" ry="3.5"/>
</g>
<!-- frames_sensorobject_143071000&#45;&gt;frames_sensor_inertial_producerobject_143071000 -->
<g id="edge47" class="edge"><title>frames_sensorobject_143071000&#45;&gt;frames_sensor_inertial_producerobject_143071000</title>
<path fill="none" stroke="black" d="M608.723,-488.527C699.994,-480.363 847.688,-467.151 869.109,-465.235"/>
</g>
<!-- frames_inertialobject_143071000 -->
<g id="node26" class="node"><title>frames_inertialobject_143071000</title>
<ellipse fill="none" stroke="black" cx="1119.73" cy="-465" rx="58.8803" ry="10.7143"/>
<text text-anchor="middle" x="1119.73" y="-461.3" font-family="Arial" font-size="14.00">inertial=world</text>
</g>
<!-- frames_inertialobject_143071000&#45;&gt;outputsobject_143071000 -->
<!-- frames_sensor_inertial_producerobject_143071000&#45;&gt;outputsobject_143071000 -->
<g id="edge49" class="edge"><title>frames_sensor_inertial_producerobject_143071000&#45;&gt;outputsobject_143071000:orientation_samples</title>
<path fill="none" stroke="black" d="M876.232,-464.241C886.816,-461.07 929.032,-448.877 964.732,-445 1101.7,-430.126 1140.64,-413.345 1274.73,-445 1294.08,-449.567 1294.86,-465 1314.73,-465"/>
</g>
<!-- frames_sensor_inertial_producerobject_143071000&#45;&gt;frames_inertialobject_143071000 -->
<g id="edge48" class="edge"><title>frames_sensor_inertial_producerobject_143071000&#45;&gt;frames_inertialobject_143071000</title>
<path fill="none" stroke="black" d="M876.484,-465C893.425,-465 985.01,-465 1050.56,-465"/>
<polygon fill="black" stroke="black" points="1050.85,-468.5 1060.85,-465 1050.85,-461.5 1050.85,-468.5"/>
</g>
<!-- labelobject_143071000 -->
<g id="node28" class="node"><title>labelobject_143071000</title>
<g id="a_node28"><a xlink:href="plan://syskit/object_143071000" xlink:title="&lt;TABLE&gt;">
<text text-anchor="start" x="1018.23" y="-520.8" font-family="Arial" font-size="14.00">OroGen::RockGazebo::ImuTask</text>
<polygon fill="none" stroke="white" points="1014.73,-514.5 1014.73,-535.5 1224.73,-535.5 1224.73,-514.5 1014.73,-514.5"/>
</a>
</g>
</g>
<!-- labelobject_143071000&#45;&gt;outputsobject_143071000 -->
<!-- frames_dev_pressure_sensorflat_fish__pressure_sensorobject_143064320 -->
<g id="node29" class="node"><title>frames_dev_pressure_sensorflat_fish__pressure_sensorobject_143064320</title>
<ellipse fill="none" stroke="black" cx="535.366" cy="-399" rx="245.232" ry="10.7143"/>
<text text-anchor="middle" x="535.366" y="-395.3" font-family="Arial" font-size="14.00">dev(pressure_sensor).from=flat_fish::pressure_sensor</text>
</g>
<!-- frames_dev_pressure_sensorflat_fish__pressure_sensor_world_producerobject_143064320 -->
<g id="node31" class="node"><title>frames_dev_pressure_sensorflat_fish__pressure_sensor_world_producerobject_143064320</title>
<ellipse fill="none" stroke="black" cx="872.732" cy="-399" rx="3.5" ry="3.5"/>
</g>
<!-- frames_dev_pressure_sensorflat_fish__pressure_sensorobject_143064320&#45;&gt;frames_dev_pressure_sensorflat_fish__pressure_sensor_world_producerobject_143064320 -->
<g id="edge15" class="edge"><title>frames_dev_pressure_sensorflat_fish__pressure_sensorobject_143064320&#45;&gt;frames_dev_pressure_sensorflat_fish__pressure_sensor_world_producerobject_143064320</title>
<path fill="none" stroke="black" d="M780.977,-399C824.897,-399 859.828,-399 869.23,-399"/>
</g>
<!-- frames_dev_pressure_sensorworldobject_143064320 -->
<g id="node30" class="node"><title>frames_dev_pressure_sensorworldobject_143064320</title>
<ellipse fill="none" stroke="black" cx="1119.73" cy="-399" rx="140.929" ry="10.7143"/>
<text text-anchor="middle" x="1119.73" y="-395.3" font-family="Arial" font-size="14.00">dev(pressure_sensor).to=world</text>
</g>
<!-- frames_dev_pressure_sensorflat_fish__pressure_sensor_world_producerobject_143064320&#45;&gt;frames_dev_pressure_sensorworldobject_143064320 -->
<g id="edge16" class="edge"><title>frames_dev_pressure_sensorflat_fish__pressure_sensor_world_producerobject_143064320&#45;&gt;frames_dev_pressure_sensorworldobject_143064320</title>
<path fill="none" stroke="black" d="M876.484,-399C886.872,-399 925.327,-399 968.636,-399"/>
<polygon fill="black" stroke="black" points="968.834,-402.5 978.834,-399 968.834,-395.5 968.834,-402.5"/>
</g>
<!-- frames_dev_flat_fishflat_fishobject_143064320 -->
<g id="node32" class="node"><title>frames_dev_flat_fishflat_fishobject_143064320</title>
<ellipse fill="none" stroke="black" cx="535.366" cy="-360" rx="122.159" ry="10.7143"/>
<text text-anchor="middle" x="535.366" y="-356.3" font-family="Arial" font-size="14.00">dev(flat_fish).from=flat_fish</text>
</g>
<!-- frames_dev_flat_fishflat_fish_world_producerobject_143064320 -->
<g id="node34" class="node"><title>frames_dev_flat_fishflat_fish_world_producerobject_143064320</title>
<ellipse fill="none" stroke="black" cx="872.732" cy="-360" rx="3.5" ry="3.5"/>
</g>
<!-- frames_dev_flat_fishflat_fishobject_143064320&#45;&gt;frames_dev_flat_fishflat_fish_world_producerobject_143064320 -->
<g id="edge17" class="edge"><title>frames_dev_flat_fishflat_fishobject_143064320&#45;&gt;frames_dev_flat_fishflat_fish_world_producerobject_143064320</title>
<path fill="none" stroke="black" d="M657.915,-360C745.643,-360 851.64,-360 869.21,-360"/>
</g>
<!-- frames_dev_flat_fishworldobject_143064320 -->
<g id="node33" class="node"><title>frames_dev_flat_fishworldobject_143064320</title>
<ellipse fill="none" stroke="black" cx="1119.73" cy="-360" rx="98.9899" ry="10.7143"/>
<text text-anchor="middle" x="1119.73" y="-356.3" font-family="Arial" font-size="14.00">dev(flat_fish).to=world</text>
</g>
<!-- frames_dev_flat_fishflat_fish_world_producerobject_143064320&#45;&gt;frames_dev_flat_fishworldobject_143064320 -->
<g id="edge18" class="edge"><title>frames_dev_flat_fishflat_fish_world_producerobject_143064320&#45;&gt;frames_dev_flat_fishworldobject_143064320</title>
<path fill="none" stroke="black" d="M876.484,-360C890.175,-360 952.616,-360 1010.67,-360"/>
<polygon fill="black" stroke="black" points="1010.69,-363.5 1020.69,-360 1010.69,-356.5 1010.69,-363.5"/>
</g>
<!-- frames_pressure_sensor_sourceobject_143064320 -->
<g id="node35" class="node"><title>frames_pressure_sensor_sourceobject_143064320</title>
<ellipse fill="none" stroke="black" cx="535.366" cy="-189" rx="236.347" ry="10.7143"/>
<text text-anchor="middle" x="535.366" y="-185.3" font-family="Arial" font-size="14.00">pressure_sensor_source=flat_fish::pressure_sensor</text>
</g>
<!-- frames_pressure_sensor_sourceobject_143064320&#45;&gt;outputsobject_143064320 -->
<!-- frames_pressure_sensor_source_pressure_sensor_target_producerobject_143064320 -->
<g id="node41" class="node"><title>frames_pressure_sensor_source_pressure_sensor_target_producerobject_143064320</title>
<ellipse fill="none" stroke="black" cx="872.732" cy="-182" rx="3.5" ry="3.5"/>
</g>
<!-- frames_pressure_sensor_sourceobject_143064320&#45;&gt;frames_pressure_sensor_source_pressure_sensor_target_producerobject_143064320 -->
<g id="edge63" class="edge"><title>frames_pressure_sensor_sourceobject_143064320&#45;&gt;frames_pressure_sensor_source_pressure_sensor_target_producerobject_143064320</title>
<path fill="none" stroke="black" d="M750.183,-184.537C807.875,-183.333 857.667,-182.294 869.214,-182.053"/>
</g>
<!-- frames_pressure_sensor_targetobject_143064320 -->
<g id="node36" class="node"><title>frames_pressure_sensor_targetobject_143064320</title>
<ellipse fill="none" stroke="black" cx="1119.73" cy="-101" rx="137.772" ry="10.7143"/>
<text text-anchor="middle" x="1119.73" y="-97.3" font-family="Arial" font-size="14.00">pressure_sensor_target=world</text>
</g>
<!-- frames_pressure_sensor_targetobject_143064320&#45;&gt;outputsobject_143064320 -->
<!-- frames_dvl_velocity_sourceobject_143064320 -->
<g id="node37" class="node"><title>frames_dvl_velocity_sourceobject_143064320</title>
<ellipse fill="none" stroke="black" cx="535.366" cy="-310" rx="147.571" ry="10.7143"/>
<text text-anchor="middle" x="535.366" y="-306.3" font-family="Arial" font-size="14.00">dvl_velocity_source=flat_fish::dvl</text>
</g>
<!-- frames_dvl_velocity_sourceobject_143064320&#45;&gt;outputsobject_143064320 -->
<!-- frames_dvl_velocity_source_dvl_velocity_target_producerobject_143064320 -->
<g id="node42" class="node"><title>frames_dvl_velocity_source_dvl_velocity_target_producerobject_143064320</title>
<ellipse fill="none" stroke="black" cx="872.732" cy="-333" rx="3.5" ry="3.5"/>
</g>
<!-- frames_dvl_velocity_sourceobject_143064320&#45;&gt;frames_dvl_velocity_source_dvl_velocity_target_producerobject_143064320 -->
<g id="edge65" class="edge"><title>frames_dvl_velocity_sourceobject_143064320&#45;&gt;frames_dvl_velocity_source_dvl_velocity_target_producerobject_143064320</title>
<path fill="none" stroke="black" d="M642.939,-317.309C732.7,-323.465 849.526,-331.477 868.942,-332.809"/>
</g>
<!-- frames_dvl_velocity_targetobject_143064320 -->
<g id="node38" class="node"><title>frames_dvl_velocity_targetobject_143064320</title>
<ellipse fill="none" stroke="black" cx="1119.73" cy="-200" rx="142.671" ry="10.7143"/>
<text text-anchor="middle" x="1119.73" y="-196.3" font-family="Arial" font-size="14.00">dvl_velocity_target=flat_fish::dvl</text>
</g>
<!-- frames_dvl_velocity_targetobject_143064320&#45;&gt;outputsobject_143064320 -->
<!-- frames_bodyobject_143064320 -->
<g id="node39" class="node"><title>frames_bodyobject_143064320</title>
<ellipse fill="none" stroke="black" cx="535.366" cy="-228" rx="63.7795" ry="10.7143"/>
<text text-anchor="middle" x="535.366" y="-224.3" font-family="Arial" font-size="14.00">body=flat_fish</text>
</g>
<!-- frames_bodyobject_143064320&#45;&gt;outputsobject_143064320 -->
<!-- frames_body_world_producerobject_143064320 -->
<g id="node43" class="node"><title>frames_body_world_producerobject_143064320</title>
<ellipse fill="none" stroke="black" cx="872.732" cy="-207" rx="3.5" ry="3.5"/>
</g>
<!-- frames_bodyobject_143064320&#45;&gt;frames_body_world_producerobject_143064320 -->
<g id="edge67" class="edge"><title>frames_bodyobject_143064320&#45;&gt;frames_body_world_producerobject_143064320</title>
<path fill="none" stroke="black" d="M595.166,-224.318C684.585,-218.719 846.782,-208.562 869.149,-207.162"/>
</g>
<!-- frames_worldobject_143064320 -->
<g id="node40" class="node"><title>frames_worldobject_143064320</title>
<ellipse fill="none" stroke="black" cx="1119.73" cy="-140" rx="53.9813" ry="10.7143"/>
<text text-anchor="middle" x="1119.73" y="-136.3" font-family="Arial" font-size="14.00">world=world</text>
</g>
<!-- frames_worldobject_143064320&#45;&gt;outputsobject_143064320 -->
<!-- frames_pressure_sensor_source_pressure_sensor_target_producerobject_143064320&#45;&gt;outputsobject_143064320 -->
<g id="edge69" class="edge"><title>frames_pressure_sensor_source_pressure_sensor_target_producerobject_143064320&#45;&gt;outputsobject_143064320:pressure_sensor</title>
<path fill="none" stroke="black" d="M875.181,-179.058C882.389,-164.798 915.999,-102.688 964.732,-81 996.201,-66.9953 1245.65,-62.5508 1274.73,-81 1317.88,-108.368 1272.64,-185 1323.73,-185"/>
</g>
<!-- frames_pressure_sensor_source_pressure_sensor_target_producerobject_143064320&#45;&gt;frames_pressure_sensor_targetobject_143064320 -->
<g id="edge64" class="edge"><title>frames_pressure_sensor_source_pressure_sensor_target_producerobject_143064320&#45;&gt;frames_pressure_sensor_targetobject_143064320</title>
<path fill="none" stroke="black" d="M875.764,-180.044C885.043,-171.244 924.661,-135.102 964.732,-120 976.269,-115.652 988.602,-112.252 1001.08,-109.599"/>
<polygon fill="black" stroke="black" points="1001.97,-112.991 1011.1,-107.627 1000.62,-106.123 1001.97,-112.991"/>
</g>
<!-- frames_dvl_velocity_source_dvl_velocity_target_producerobject_143064320&#45;&gt;outputsobject_143064320 -->
<g id="edge70" class="edge"><title>frames_dvl_velocity_source_dvl_velocity_target_producerobject_143064320&#45;&gt;outputsobject_143064320:dvl_velocity</title>
<path fill="none" stroke="black" d="M876.443,-333.024C909.663,-333.301 1237.7,-335.511 1274.73,-315 1308.27,-296.424 1285.39,-244 1323.73,-244"/>
</g>
<!-- frames_dvl_velocity_source_dvl_velocity_target_producerobject_143064320&#45;&gt;frames_dvl_velocity_targetobject_143064320 -->
<g id="edge66" class="edge"><title>frames_dvl_velocity_source_dvl_velocity_target_producerobject_143064320&#45;&gt;frames_dvl_velocity_targetobject_143064320</title>
<path fill="none" stroke="black" d="M875.801,-330.927C885.239,-321.564 925.446,-282.692 964.732,-260 999.371,-239.992 1041.95,-223.982 1073.56,-213.549"/>
<polygon fill="black" stroke="black" points="1074.97,-216.77 1083.41,-210.36 1072.81,-210.11 1074.97,-216.77"/>
</g>
<!-- frames_body_world_producerobject_143064320&#45;&gt;outputsobject_143064320 -->
<g id="edge71" class="edge"><title>frames_body_world_producerobject_143064320&#45;&gt;outputsobject_143064320:pose_samples</title>
<path fill="none" stroke="black" d="M876.288,-206.527C884.186,-205.039 908.87,-200.177 928.732,-194 945.125,-188.902 947.859,-183.165 964.732,-180 1032.44,-167.298 1208.99,-159.425 1274.73,-180 1300.03,-187.917 1297.23,-214 1323.73,-214"/>
</g>
<!-- frames_body_world_producerobject_143064320&#45;&gt;frames_worldobject_143064320 -->
<g id="edge68" class="edge"><title>frames_body_world_producerobject_143064320&#45;&gt;frames_worldobject_143064320</title>
<path fill="none" stroke="black" d="M876.392,-206.79C884.591,-206.058 910.049,-203.143 928.732,-194 947.186,-184.969 945.968,-173.369 964.732,-165 993.388,-152.219 1027.64,-145.886 1056.56,-142.783"/>
<polygon fill="black" stroke="black" points="1056.94,-146.263 1066.55,-141.814 1056.26,-139.296 1056.94,-146.263"/>
</g>
<!-- labelobject_143064320 -->
<g id="node44" class="node"><title>labelobject_143064320</title>
<g id="a_node44"><a xlink:href="plan://syskit/object_143064320" xlink:title="&lt;TABLE&gt;">
<text text-anchor="start" x="1010.73" y="-275.8" font-family="Arial" font-size="14.00">OroGen::RockGazebo::ModelTask</text>
<polygon fill="none" stroke="white" points="1007.73,-269.5 1007.73,-290.5 1231.73,-290.5 1231.73,-269.5 1007.73,-269.5"/>
</a>
</g>
</g>
<!-- labelobject_143064320&#45;&gt;outputsobject_143064320 -->
<!-- inputsobject_143064320 -->
<g id="node45" class="node"><title>inputsobject_143064320</title>
<text text-anchor="middle" x="135" y="-165.3" font-family="Arial" font-size="14.00">inputsobject_143064320</text>
</g>
<!-- inputsobject_143064320&#45;&gt;frames_pressure_sensor_sourceobject_143064320 -->
<!-- inputsobject_143064320&#45;&gt;frames_pressure_sensor_targetobject_143064320 -->
<!-- inputsobject_143064320&#45;&gt;frames_dvl_velocity_sourceobject_143064320 -->
<!-- inputsobject_143064320&#45;&gt;frames_dvl_velocity_targetobject_143064320 -->
<!-- inputsobject_143064320&#45;&gt;frames_bodyobject_143064320 -->
<!-- inputsobject_143064320&#45;&gt;frames_worldobject_143064320 -->
</g>
</svg>
