<?xml version="1.0" encoding="UTF-8" standalone="no"?>
<!DOCTYPE svg PUBLIC "-//W3C//DTD SVG 1.1//EN"
 "http://www.w3.org/Graphics/SVG/1.1/DTD/svg11.dtd">
<!-- Generated by graphviz version 2.38.0 (20140413.2041)
 -->
<!-- Title: %3 Pages: 1 -->
<svg width="710.4pt" height="174.0pt"
 viewBox="0.00 0.00 1183.66 290.00" xmlns="http://www.w3.org/2000/svg" xmlns:xlink="http://www.w3.org/1999/xlink">
<g id="graph0" class="graph" transform="scale(1 1) rotate(0) translate(4 286)">
<title>%3</title>
<polygon fill="white" stroke="none" points="-4,4 -4,-286 1179.66,-286 1179.66,4 -4,4"/>
<g id="clust1" class="cluster"><title>cluster_object_33682740</title>
<g id="a_clust1"><a xlink:href="plan://syskit/object_33682740">
<polygon fill="none" stroke="black" points="8,-8 8,-274 1167.66,-274 1167.66,-8 8,-8"/>
</a>
</g>
</g>
<!-- frames_imuobject_33682740 -->
<g id="node1" class="node"><title>frames_imuobject_33682740</title>
<ellipse fill="none" stroke="red" cx="320.731" cy="-124" rx="27" ry="10.7143"/>
<text text-anchor="middle" x="320.731" y="-120.3" font-family="Arial" font-size="14.00">imu=</text>
</g>
<!-- frames_imu_body_producerobject_33682740 -->
<g id="node6" class="node"><title>frames_imu_body_producerobject_33682740</title>
<ellipse fill="none" stroke="black" cx="442.963" cy="-131" rx="3.5" ry="3.5"/>
</g>
<!-- frames_imuobject_33682740&#45;&gt;frames_imu_body_producerobject_33682740 -->
<g id="edge13" class="edge"><title>frames_imuobject_33682740&#45;&gt;frames_imu_body_producerobject_33682740</title>
<path fill="none" stroke="black" d="M347.524,-125.502C378.436,-127.301 427.557,-130.161 439.354,-130.848"/>
</g>
<!-- outputsobject_33682740 -->
<g id="node14" class="node"><title>outputsobject_33682740</title>
<polygon fill="none" stroke="black" points="923.659,-195 923.659,-224 1159.66,-224 1159.66,-195 923.659,-195"/>
<text text-anchor="start" x="986.659" y="-205.8" font-family="Arial" font-size="14.00">velocity_samples</text>
<polygon fill="none" stroke="black" points="923.659,-166 923.659,-195 1159.66,-195 1159.66,-166 923.659,-166"/>
<text text-anchor="start" x="931.159" y="-176.8" font-family="Arial" font-size="14.00">transformer_stream_aligner_status</text>
<polygon fill="none" stroke="black" points="923.659,-137 923.659,-166 1159.66,-166 1159.66,-137 923.659,-137"/>
<text text-anchor="start" x="982.159" y="-147.8" font-family="Arial" font-size="14.00">transformer_status</text>
<polygon fill="none" stroke="black" points="923.659,-108 923.659,-137 1159.66,-137 1159.66,-108 923.659,-108"/>
<text text-anchor="start" x="1026.16" y="-118.8" font-family="Arial" font-size="14.00">state</text>
</g>
<!-- frames_imuobject_33682740&#45;&gt;outputsobject_33682740 -->
<!-- frames_bodyobject_33682740 -->
<g id="node2" class="node"><title>frames_bodyobject_33682740</title>
<ellipse fill="none" stroke="red" cx="522.061" cy="-197" rx="28.0702" ry="10.7143"/>
<text text-anchor="middle" x="522.061" y="-193.3" font-family="Arial" font-size="14.00">body=</text>
</g>
<!-- frames_body_body_producerobject_33682740 -->
<g id="node9" class="node"><title>frames_body_body_producerobject_33682740</title>
<ellipse fill="none" stroke="black" cx="742.659" cy="-210" rx="3.5" ry="3.5"/>
</g>
<!-- frames_bodyobject_33682740&#45;&gt;frames_body_body_producerobject_33682740 -->
<g id="edge19" class="edge"><title>frames_bodyobject_33682740&#45;&gt;frames_body_body_producerobject_33682740</title>
<path fill="none" stroke="black" d="M549.429,-193.984C603.027,-193.491 721.171,-201.528 739.304,-208.309"/>
</g>
<!-- frames_bodyobject_33682740&#45;&gt;outputsobject_33682740 -->
<!-- frames_dvlobject_33682740 -->
<g id="node3" class="node"><title>frames_dvlobject_33682740</title>
<ellipse fill="none" stroke="red" cx="320.731" cy="-192" rx="27" ry="10.7143"/>
<text text-anchor="middle" x="320.731" y="-188.3" font-family="Arial" font-size="14.00">dvl=</text>
</g>
<!-- frames_dvl_body_producerobject_33682740 -->
<g id="node7" class="node"><title>frames_dvl_body_producerobject_33682740</title>
<ellipse fill="none" stroke="black" cx="442.963" cy="-197" rx="3.5" ry="3.5"/>
</g>
<!-- frames_dvlobject_33682740&#45;&gt;frames_dvl_body_producerobject_33682740 -->
<g id="edge15" class="edge"><title>frames_dvlobject_33682740&#45;&gt;frames_dvl_body_producerobject_33682740</title>
<path fill="none" stroke="black" d="M347.82,-193.085C378.761,-194.372 427.633,-196.404 439.368,-196.892"/>
</g>
<!-- frames_dvl_dvl_producerobject_33682740 -->
<g id="node10" class="node"><title>frames_dvl_dvl_producerobject_33682740</title>
<ellipse fill="none" stroke="black" cx="442.963" cy="-222" rx="3.5" ry="3.5"/>
</g>
<!-- frames_dvlobject_33682740&#45;&gt;frames_dvl_dvl_producerobject_33682740 -->
<g id="edge21" class="edge"><title>frames_dvlobject_33682740&#45;&gt;frames_dvl_dvl_producerobject_33682740</title>
<path fill="none" stroke="black" d="M347.82,-192.831C379.59,-198.506 430.264,-212.449 440.23,-219.786"/>
</g>
<!-- frames_dvlobject_33682740&#45;&gt;outputsobject_33682740 -->
<!-- frames_pressure_sensorobject_33682740 -->
<g id="node4" class="node"><title>frames_pressure_sensorobject_33682740</title>
<ellipse fill="none" stroke="red" cx="320.731" cy="-78" rx="82.9636" ry="10.7143"/>
<text text-anchor="middle" x="320.731" y="-74.3" font-family="Arial" font-size="14.00">pressure_sensor=</text>
</g>
<!-- frames_pressure_sensor_body_producerobject_33682740 -->
<g id="node8" class="node"><title>frames_pressure_sensor_body_producerobject_33682740</title>
<ellipse fill="none" stroke="black" cx="442.963" cy="-106" rx="3.5" ry="3.5"/>
</g>
<!-- frames_pressure_sensorobject_33682740&#45;&gt;frames_pressure_sensor_body_producerobject_33682740 -->
<g id="edge17" class="edge"><title>frames_pressure_sensorobject_33682740&#45;&gt;frames_pressure_sensor_body_producerobject_33682740</title>
<path fill="none" stroke="black" d="M361.433,-87.2458C391.529,-94.2547 429.371,-103.068 439.419,-105.408"/>
</g>
<!-- frames_pressure_sensor_surface_producerobject_33682740 -->
<g id="node11" class="node"><title>frames_pressure_sensor_surface_producerobject_33682740</title>
<ellipse fill="none" stroke="black" cx="442.963" cy="-40" rx="3.5" ry="3.5"/>
</g>
<!-- frames_pressure_sensorobject_33682740&#45;&gt;frames_pressure_sensor_surface_producerobject_33682740 -->
<g id="edge24" class="edge"><title>frames_pressure_sensorobject_33682740&#45;&gt;frames_pressure_sensor_surface_producerobject_33682740</title>
<path fill="none" stroke="black" d="M352.694,-68.2141C383.587,-58.4503 428.031,-44.4032 439.292,-40.8441"/>
</g>
<!-- frames_pressure_sensorobject_33682740&#45;&gt;outputsobject_33682740 -->
<!-- frames_surfaceobject_33682740 -->
<g id="node5" class="node"><title>frames_surfaceobject_33682740</title>
<ellipse fill="none" stroke="red" cx="522.061" cy="-33" rx="39.6962" ry="10.7143"/>
<text text-anchor="middle" x="522.061" y="-29.3" font-family="Arial" font-size="14.00">surface=</text>
</g>
<!-- frames_surfaceobject_33682740&#45;&gt;outputsobject_33682740 -->
<!-- frames_imu_body_producerobject_33682740&#45;&gt;frames_bodyobject_33682740 -->
<g id="edge14" class="edge"><title>frames_imu_body_producerobject_33682740&#45;&gt;frames_bodyobject_33682740</title>
<path fill="none" stroke="black" d="M446.187,-132.904C454.267,-139.821 482.606,-164.08 502.006,-180.688"/>
<polygon fill="black" stroke="black" points="499.815,-183.419 509.687,-187.264 504.367,-178.102 499.815,-183.419"/>
</g>
<!-- frames_dvl_body_producerobject_33682740&#45;&gt;frames_bodyobject_33682740 -->
<g id="edge16" class="edge"><title>frames_dvl_body_producerobject_33682740&#45;&gt;frames_bodyobject_33682740</title>
<path fill="none" stroke="black" d="M446.528,-197C452.472,-197 467.849,-197 483.103,-197"/>
<polygon fill="black" stroke="black" points="483.526,-200.5 493.526,-197 483.526,-193.5 483.526,-200.5"/>
</g>
<!-- frames_pressure_sensor_body_producerobject_33682740&#45;&gt;frames_bodyobject_33682740 -->
<g id="edge18" class="edge"><title>frames_pressure_sensor_body_producerobject_33682740&#45;&gt;frames_bodyobject_33682740</title>
<path fill="none" stroke="black" d="M445.869,-108.249C454.006,-117.854 486.309,-155.981 505.831,-179.023"/>
<polygon fill="black" stroke="black" points="503.241,-181.382 512.376,-186.749 508.582,-176.857 503.241,-181.382"/>
</g>
<!-- frames_body_body_producerobject_33682740&#45;&gt;frames_bodyobject_33682740 -->
<g id="edge20" class="edge"><title>frames_body_body_producerobject_33682740&#45;&gt;frames_bodyobject_33682740</title>
<path fill="none" stroke="black" d="M739.211,-211.434C721.513,-215.831 612.246,-210.475 556.18,-203.974"/>
<polygon fill="black" stroke="black" points="556.399,-200.475 546.042,-202.706 555.53,-207.42 556.399,-200.475"/>
</g>
<!-- frames_body_body_producerobject_33682740&#45;&gt;outputsobject_33682740 -->
<g id="edge27" class="edge"><title>frames_body_body_producerobject_33682740&#45;&gt;outputsobject_33682740:velocity_samples</title>
<path fill="none" stroke="black" d="M746.253,-210C762.646,-210 853.548,-210 927.659,-210"/>
</g>
<!-- frames_dvl_dvl_producerobject_33682740&#45;&gt;frames_dvlobject_33682740 -->
<g id="edge22" class="edge"><title>frames_dvl_dvl_producerobject_33682740&#45;&gt;frames_dvlobject_33682740</title>
<path fill="none" stroke="black" d="M439.527,-223.483C428.003,-225.235 378.22,-213.994 347.177,-203.981"/>
<polygon fill="black" stroke="black" points="348.044,-200.579 337.45,-200.653 345.778,-207.202 348.044,-200.579"/>
</g>
<!-- frames_pressure_sensor_surface_producerobject_33682740&#45;&gt;frames_surfaceobject_33682740 -->
<g id="edge25" class="edge"><title>frames_pressure_sensor_surface_producerobject_33682740&#45;&gt;frames_surfaceobject_33682740</title>
<path fill="none" stroke="black" d="M446.528,-39.7671C451.305,-39.3334 462.172,-38.3467 474.172,-37.2572"/>
<polygon fill="black" stroke="black" points="474.768,-40.7176 484.41,-36.3277 474.134,-33.7463 474.768,-40.7176"/>
</g>
<!-- labelobject_33682740 -->
<g id="node12" class="node"><title>labelobject_33682740</title>
<g id="a_node12"><a xlink:href="plan://syskit/object_33682740" xlink:title="&lt;TABLE&gt;">
<text text-anchor="start" x="601.159" y="-238.8" font-family="Arial" font-size="14.00">OroGen::UwvKalmanFilters::VelocityProvider</text>
<polygon fill="none" stroke="white" points="597.659,-232.5 597.659,-253.5 887.659,-253.5 887.659,-232.5 597.659,-232.5"/>
</a>
</g>
</g>
<!-- labelobject_33682740&#45;&gt;outputsobject_33682740 -->
<!-- inputsobject_33682740 -->
<g id="node13" class="node"><title>inputsobject_33682740</title>
<polygon fill="none" stroke="black" points="16,-182 16,-211 202,-211 202,-182 16,-182"/>
<text text-anchor="start" x="68" y="-192.8" font-family="Arial" font-size="14.00">body_efforts</text>
<polygon fill="none" stroke="black" points="16,-153 16,-182 202,-182 202,-153 16,-153"/>
<text text-anchor="start" x="41" y="-163.8" font-family="Arial" font-size="14.00">dvl_velocity_samples</text>
<polygon fill="none" stroke="black" points="16,-124 16,-153 202,-153 202,-124 16,-124"/>
<text text-anchor="start" x="40.5" y="-134.8" font-family="Arial" font-size="14.00">imu_sensor_samples</text>
<polygon fill="none" stroke="black" points="16,-95 16,-124 202,-124 202,-95 16,-95"/>
<text text-anchor="start" x="23.5" y="-105.8" font-family="Arial" font-size="14.00">pressure_sensor_samples</text>
<polygon fill="none" stroke="black" points="16,-66 16,-95 202,-95 202,-66 16,-66"/>
<text text-anchor="start" x="29.5" y="-76.8" font-family="Arial" font-size="14.00">dynamic_transformations</text>
</g>
<!-- inputsobject_33682740&#45;&gt;frames_imuobject_33682740 -->
<!-- inputsobject_33682740&#45;&gt;frames_imuobject_33682740 -->
<g id="edge29" class="edge"><title>inputsobject_33682740:imu_sensor_samples&#45;&gt;frames_imuobject_33682740</title>
<path fill="none" stroke="black" d="M198,-138C232.25,-138 271.567,-132.463 296.032,-128.353"/>
</g>
<!-- inputsobject_33682740&#45;&gt;frames_bodyobject_33682740 -->
<!-- inputsobject_33682740&#45;&gt;frames_bodyobject_33682740 -->
<g id="edge28" class="edge"><title>inputsobject_33682740:body_efforts&#45;&gt;frames_bodyobject_33682740</title>
<path fill="none" stroke="black" d="M198,-197C220.492,-197 216.83,-220.403 238,-228 322.314,-258.257 349.894,-232.667 439.463,-234 442.574,-234.046 443.434,-234.71 446.463,-234 469.265,-228.656 493.081,-215.259 507.497,-206.141"/>
</g>
<!-- inputsobject_33682740&#45;&gt;frames_dvlobject_33682740 -->
<!-- inputsobject_33682740&#45;&gt;frames_pressure_sensorobject_33682740 -->
<!-- inputsobject_33682740&#45;&gt;frames_surfaceobject_33682740 -->
<!-- inputsobject_33682740&#45;&gt;frames_dvl_dvl_producerobject_33682740 -->
<g id="edge23" class="edge"><title>inputsobject_33682740:dvl_velocity_samples&#45;&gt;frames_dvl_dvl_producerobject_33682740</title>
<path fill="none" stroke="black" d="M198,-168C224.429,-168 214.1,-200.719 238,-212 313.023,-247.41 421.308,-226.441 439.365,-222.576"/>
</g>
<!-- inputsobject_33682740&#45;&gt;frames_pressure_sensor_surface_producerobject_33682740 -->
<g id="edge26" class="edge"><title>inputsobject_33682740:pressure_sensor_samples&#45;&gt;frames_pressure_sensor_surface_producerobject_33682740</title>
<path fill="none" stroke="black" d="M198,-109C226.807,-109 212.676,-71.7312 238,-58 311.124,-18.3499 420.981,-36.146 439.323,-39.4975"/>
</g>
<!-- inputsobject_33682740&#45;&gt;labelobject_33682740 -->
</g>
</svg>
