<?xml version="1.0" encoding="UTF-8" standalone="no"?>
<!DOCTYPE svg PUBLIC "-//W3C//DTD SVG 1.1//EN"
 "http://www.w3.org/Graphics/SVG/1.1/DTD/svg11.dtd">
<!-- Generated by graphviz version 2.38.0 (20140413.2041)
 -->
<!-- Title: %3 Pages: 1 -->
<svg width="640.8pt" height="120.0pt"
 viewBox="0.00 0.00 1068.46 200.00" xmlns="http://www.w3.org/2000/svg" xmlns:xlink="http://www.w3.org/1999/xlink">
<g id="graph0" class="graph" transform="scale(1 1) rotate(0) translate(4 196)">
<title>%3</title>
<polygon fill="white" stroke="none" points="-4,4 -4,-196 1064.46,-196 1064.46,4 -4,4"/>
<g id="clust1" class="cluster"><title>cluster_object_26719880</title>
<g id="a_clust1"><a xlink:href="plan://syskit/object_26719880">
<polygon fill="none" stroke="black" points="8,-8 8,-184 1052.46,-184 1052.46,-8 8,-8"/>
</a>
</g>
</g>
<!-- frames_imuobject_26719880 -->
<g id="node1" class="node"><title>frames_imuobject_26719880</title>
<ellipse fill="none" stroke="red" cx="320.731" cy="-40" rx="27" ry="10.7143"/>
<text text-anchor="middle" x="320.731" y="-36.3" font-family="Arial" font-size="14.00">imu=</text>
</g>
<!-- frames_imu_body_producerobject_26719880 -->
<g id="node5" class="node"><title>frames_imu_body_producerobject_26719880</title>
<ellipse fill="none" stroke="black" cx="442.963" cy="-40" rx="3.5" ry="3.5"/>
</g>
<!-- frames_imuobject_26719880&#45;&gt;frames_imu_body_producerobject_26719880 -->
<g id="edge11" class="edge"><title>frames_imuobject_26719880&#45;&gt;frames_imu_body_producerobject_26719880</title>
<path fill="none" stroke="black" d="M347.82,-40C378.761,-40 427.633,-40 439.368,-40"/>
</g>
<!-- outputsobject_26719880 -->
<g id="node10" class="node"><title>outputsobject_26719880</title>
<polygon fill="none" stroke="black" points="808.463,-128 808.463,-157 1044.46,-157 1044.46,-128 808.463,-128"/>
<text text-anchor="start" x="871.463" y="-138.8" font-family="Arial" font-size="14.00">velocity_samples</text>
<polygon fill="none" stroke="black" points="808.463,-99 808.463,-128 1044.46,-128 1044.46,-99 808.463,-99"/>
<text text-anchor="start" x="815.963" y="-109.8" font-family="Arial" font-size="14.00">transformer_stream_aligner_status</text>
<polygon fill="none" stroke="black" points="808.463,-70 808.463,-99 1044.46,-99 1044.46,-70 808.463,-70"/>
<text text-anchor="start" x="866.963" y="-80.8" font-family="Arial" font-size="14.00">transformer_status</text>
<polygon fill="none" stroke="black" points="808.463,-41 808.463,-70 1044.46,-70 1044.46,-41 808.463,-41"/>
<text text-anchor="start" x="910.963" y="-51.8" font-family="Arial" font-size="14.00">state</text>
</g>
<!-- frames_imuobject_26719880&#45;&gt;outputsobject_26719880 -->
<!-- frames_bodyobject_26719880 -->
<g id="node2" class="node"><title>frames_bodyobject_26719880</title>
<ellipse fill="none" stroke="red" cx="627.463" cy="-99" rx="28.0702" ry="10.7143"/>
<text text-anchor="middle" x="627.463" y="-95.3" font-family="Arial" font-size="14.00">body=</text>
</g>
<!-- frames_bodyobject_26719880&#45;&gt;outputsobject_26719880 -->
<!-- frames_dvlobject_26719880 -->
<g id="node3" class="node"><title>frames_dvlobject_26719880</title>
<ellipse fill="none" stroke="red" cx="320.731" cy="-139" rx="27" ry="10.7143"/>
<text text-anchor="middle" x="320.731" y="-135.3" font-family="Arial" font-size="14.00">dvl=</text>
</g>
<!-- frames_dvl_body_producerobject_26719880 -->
<g id="node6" class="node"><title>frames_dvl_body_producerobject_26719880</title>
<ellipse fill="none" stroke="black" cx="442.963" cy="-132" rx="3.5" ry="3.5"/>
</g>
<!-- frames_dvlobject_26719880&#45;&gt;frames_dvl_body_producerobject_26719880 -->
<g id="edge13" class="edge"><title>frames_dvlobject_26719880&#45;&gt;frames_dvl_body_producerobject_26719880</title>
<path fill="none" stroke="black" d="M347.524,-137.498C378.436,-135.699 427.557,-132.839 439.354,-132.152"/>
</g>
<!-- frames_dvlobject_26719880&#45;&gt;outputsobject_26719880 -->
<!-- frames_pressure_sensorobject_26719880 -->
<g id="node4" class="node"><title>frames_pressure_sensorobject_26719880</title>
<ellipse fill="none" stroke="red" cx="320.731" cy="-79" rx="82.9636" ry="10.7143"/>
<text text-anchor="middle" x="320.731" y="-75.3" font-family="Arial" font-size="14.00">pressure_sensor=</text>
</g>
<!-- frames_pressure_sensor_body_producerobject_26719880 -->
<g id="node7" class="node"><title>frames_pressure_sensor_body_producerobject_26719880</title>
<ellipse fill="none" stroke="black" cx="442.963" cy="-86" rx="3.5" ry="3.5"/>
</g>
<!-- frames_pressure_sensorobject_26719880&#45;&gt;frames_pressure_sensor_body_producerobject_26719880 -->
<g id="edge15" class="edge"><title>frames_pressure_sensorobject_26719880&#45;&gt;frames_pressure_sensor_body_producerobject_26719880</title>
<path fill="none" stroke="black" d="M396.509,-83.3536C415.61,-84.4657 432.609,-85.4554 439.132,-85.8351"/>
</g>
<!-- frames_pressure_sensorobject_26719880&#45;&gt;outputsobject_26719880 -->
<!-- frames_imu_body_producerobject_26719880&#45;&gt;frames_bodyobject_26719880 -->
<g id="edge12" class="edge"><title>frames_imu_body_producerobject_26719880&#45;&gt;frames_bodyobject_26719880</title>
<path fill="none" stroke="black" d="M446.543,-40.834C462.526,-46.0013 548.893,-73.9225 595.912,-89.1233"/>
<polygon fill="black" stroke="black" points="594.992,-92.504 605.584,-92.2499 597.145,-85.8434 594.992,-92.504"/>
</g>
<!-- frames_dvl_body_producerobject_26719880&#45;&gt;frames_bodyobject_26719880 -->
<g id="edge14" class="edge"><title>frames_dvl_body_producerobject_26719880&#45;&gt;frames_bodyobject_26719880</title>
<path fill="none" stroke="black" d="M446.543,-131.534C462.042,-128.731 543.723,-113.961 591.532,-105.316"/>
<polygon fill="black" stroke="black" points="592.252,-108.743 601.47,-103.519 591.007,-101.855 592.252,-108.743"/>
</g>
<!-- frames_pressure_sensor_body_producerobject_26719880&#45;&gt;frames_bodyobject_26719880 -->
<g id="edge16" class="edge"><title>frames_pressure_sensor_body_producerobject_26719880&#45;&gt;frames_bodyobject_26719880</title>
<path fill="none" stroke="black" d="M446.543,-86.1838C461.8,-87.2706 541.187,-92.9255 589.267,-96.3504"/>
<polygon fill="black" stroke="black" points="589.084,-99.8461 599.307,-97.0656 589.581,-92.8638 589.084,-99.8461"/>
</g>
<!-- labelobject_26719880 -->
<g id="node8" class="node"><title>labelobject_26719880</title>
<g id="a_node8"><a xlink:href="plan://syskit/object_26719880" xlink:title="&lt;TABLE&gt;">
<text text-anchor="start" x="485.963" y="-160.8" font-family="Arial" font-size="14.00">OroGen::UwvKalmanFilters::VelocityProvider</text>
<polygon fill="none" stroke="white" points="482.463,-154.5 482.463,-175.5 772.463,-175.5 772.463,-154.5 482.463,-154.5"/>
</a>
</g>
</g>
<!-- labelobject_26719880&#45;&gt;outputsobject_26719880 -->
<!-- inputsobject_26719880 -->
<g id="node9" class="node"><title>inputsobject_26719880</title>
<polygon fill="none" stroke="black" points="16,-146 16,-175 202,-175 202,-146 16,-146"/>
<text text-anchor="start" x="68" y="-156.8" font-family="Arial" font-size="14.00">body_efforts</text>
<polygon fill="none" stroke="black" points="16,-117 16,-146 202,-146 202,-117 16,-117"/>
<text text-anchor="start" x="41" y="-127.8" font-family="Arial" font-size="14.00">dvl_velocity_samples</text>
<polygon fill="none" stroke="black" points="16,-88 16,-117 202,-117 202,-88 16,-88"/>
<text text-anchor="start" x="40.5" y="-98.8" font-family="Arial" font-size="14.00">imu_sensor_samples</text>
<polygon fill="none" stroke="black" points="16,-59 16,-88 202,-88 202,-59 16,-59"/>
<text text-anchor="start" x="23.5" y="-69.8" font-family="Arial" font-size="14.00">pressure_sensor_samples</text>
<polygon fill="none" stroke="black" points="16,-30 16,-59 202,-59 202,-30 16,-30"/>
<text text-anchor="start" x="29.5" y="-40.8" font-family="Arial" font-size="14.00">dynamic_transformations</text>
</g>
<!-- inputsobject_26719880&#45;&gt;frames_imuobject_26719880 -->
<!-- inputsobject_26719880&#45;&gt;frames_bodyobject_26719880 -->
<!-- inputsobject_26719880&#45;&gt;frames_dvlobject_26719880 -->
<!-- inputsobject_26719880&#45;&gt;frames_pressure_sensorobject_26719880 -->
<!-- inputsobject_26719880&#45;&gt;labelobject_26719880 -->
</g>
</svg>
