<?xml version="1.0" encoding="UTF-8" standalone="no"?>
<!DOCTYPE svg PUBLIC "-//W3C//DTD SVG 1.1//EN"
 "http://www.w3.org/Graphics/SVG/1.1/DTD/svg11.dtd">
<!-- Generated by graphviz version 2.38.0 (20140413.2041)
 -->
<!-- Title: %3 Pages: 1 -->
<svg width="640.8pt" height="146.4pt"
 viewBox="0.00 0.00 1068.46 244.00" xmlns="http://www.w3.org/2000/svg" xmlns:xlink="http://www.w3.org/1999/xlink">
<g id="graph0" class="graph" transform="scale(1 1) rotate(0) translate(4 240)">
<title>%3</title>
<polygon fill="white" stroke="none" points="-4,4 -4,-240 1064.46,-240 1064.46,4 -4,4"/>
<g id="clust1" class="cluster"><title>cluster_object_54378540</title>
<g id="a_clust1"><a xlink:href="plan://syskit/object_54378540">
<polygon fill="none" stroke="black" points="8,-8 8,-228 1052.46,-228 1052.46,-8 8,-8"/>
</a>
</g>
</g>
<!-- frames_imuobject_54378540 -->
<g id="node1" class="node"><title>frames_imuobject_54378540</title>
<ellipse fill="none" stroke="red" cx="320.731" cy="-209" rx="27" ry="10.7143"/>
<text text-anchor="middle" x="320.731" y="-205.3" font-family="Arial" font-size="14.00">imu=</text>
</g>
<!-- frames_imu_body_producerobject_54378540 -->
<g id="node5" class="node"><title>frames_imu_body_producerobject_54378540</title>
<ellipse fill="none" stroke="black" cx="442.963" cy="-156" rx="3.5" ry="3.5"/>
</g>
<!-- frames_imuobject_54378540&#45;&gt;frames_imu_body_producerobject_54378540 -->
<g id="edge11" class="edge"><title>frames_imuobject_54378540&#45;&gt;frames_imu_body_producerobject_54378540</title>
<path fill="none" stroke="black" d="M345.059,-204.053C361.849,-199.976 384.742,-193.341 403.463,-184 418.549,-176.472 434.04,-163.162 439.71,-158.065"/>
</g>
<!-- outputsobject_54378540 -->
<g id="node11" class="node"><title>outputsobject_54378540</title>
<polygon fill="none" stroke="black" points="808.463,-188 808.463,-217 1044.46,-217 1044.46,-188 808.463,-188"/>
<text text-anchor="start" x="871.463" y="-198.8" font-family="Arial" font-size="14.00">velocity_samples</text>
<polygon fill="none" stroke="black" points="808.463,-159 808.463,-188 1044.46,-188 1044.46,-159 808.463,-159"/>
<text text-anchor="start" x="815.963" y="-169.8" font-family="Arial" font-size="14.00">transformer_stream_aligner_status</text>
<polygon fill="none" stroke="black" points="808.463,-130 808.463,-159 1044.46,-159 1044.46,-130 808.463,-130"/>
<text text-anchor="start" x="866.963" y="-140.8" font-family="Arial" font-size="14.00">transformer_status</text>
<polygon fill="none" stroke="black" points="808.463,-101 808.463,-130 1044.46,-130 1044.46,-101 808.463,-101"/>
<text text-anchor="start" x="910.963" y="-111.8" font-family="Arial" font-size="14.00">state</text>
</g>
<!-- frames_imuobject_54378540&#45;&gt;outputsobject_54378540 -->
<!-- frames_bodyobject_54378540 -->
<g id="node2" class="node"><title>frames_bodyobject_54378540</title>
<ellipse fill="none" stroke="red" cx="627.463" cy="-129" rx="28.0702" ry="10.7143"/>
<text text-anchor="middle" x="627.463" y="-125.3" font-family="Arial" font-size="14.00">body=</text>
</g>
<!-- frames_bodyobject_54378540&#45;&gt;outputsobject_54378540 -->
<!-- frames_dvlobject_54378540 -->
<g id="node3" class="node"><title>frames_dvlobject_54378540</title>
<ellipse fill="none" stroke="red" cx="320.731" cy="-63" rx="27" ry="10.7143"/>
<text text-anchor="middle" x="320.731" y="-59.3" font-family="Arial" font-size="14.00">dvl=</text>
</g>
<!-- frames_dvl_body_producerobject_54378540 -->
<g id="node6" class="node"><title>frames_dvl_body_producerobject_54378540</title>
<ellipse fill="none" stroke="black" cx="442.963" cy="-106" rx="3.5" ry="3.5"/>
</g>
<!-- frames_dvlobject_54378540&#45;&gt;frames_dvl_body_producerobject_54378540 -->
<g id="edge13" class="edge"><title>frames_dvlobject_54378540&#45;&gt;frames_dvl_body_producerobject_54378540</title>
<path fill="none" stroke="black" d="M341.316,-70.0044C371.393,-80.7611 426.805,-100.579 439.38,-105.076"/>
</g>
<!-- frames_dvl_dvl_producerobject_54378540 -->
<g id="node8" class="node"><title>frames_dvl_dvl_producerobject_54378540</title>
<ellipse fill="none" stroke="black" cx="442.963" cy="-40" rx="3.5" ry="3.5"/>
</g>
<!-- frames_dvlobject_54378540&#45;&gt;frames_dvl_dvl_producerobject_54378540 -->
<g id="edge17" class="edge"><title>frames_dvlobject_54378540&#45;&gt;frames_dvl_dvl_producerobject_54378540</title>
<path fill="none" stroke="black" d="M338.449,-54.957C367.872,-46.0682 426.994,-35.6828 439.575,-38.3852"/>
</g>
<!-- frames_dvlobject_54378540&#45;&gt;outputsobject_54378540 -->
<!-- frames_pressure_sensorobject_54378540 -->
<g id="node4" class="node"><title>frames_pressure_sensorobject_54378540</title>
<ellipse fill="none" stroke="red" cx="320.731" cy="-129" rx="82.9636" ry="10.7143"/>
<text text-anchor="middle" x="320.731" y="-125.3" font-family="Arial" font-size="14.00">pressure_sensor=</text>
</g>
<!-- frames_pressure_sensor_body_producerobject_54378540 -->
<g id="node7" class="node"><title>frames_pressure_sensor_body_producerobject_54378540</title>
<ellipse fill="none" stroke="black" cx="442.963" cy="-131" rx="3.5" ry="3.5"/>
</g>
<!-- frames_pressure_sensorobject_54378540&#45;&gt;frames_pressure_sensor_body_producerobject_54378540 -->
<g id="edge15" class="edge"><title>frames_pressure_sensorobject_54378540&#45;&gt;frames_pressure_sensor_body_producerobject_54378540</title>
<path fill="none" stroke="black" d="M402.927,-130.351C419.461,-130.626 433.56,-130.86 439.26,-130.955"/>
</g>
<!-- frames_pressure_sensorobject_54378540&#45;&gt;outputsobject_54378540 -->
<!-- frames_imu_body_producerobject_54378540&#45;&gt;frames_bodyobject_54378540 -->
<g id="edge12" class="edge"><title>frames_imu_body_producerobject_54378540&#45;&gt;frames_bodyobject_54378540</title>
<path fill="none" stroke="black" d="M446.543,-155.618C461.961,-153.337 542.874,-141.367 590.783,-134.279"/>
<polygon fill="black" stroke="black" points="591.376,-137.729 600.757,-132.803 590.352,-130.804 591.376,-137.729"/>
</g>
<!-- frames_dvl_body_producerobject_54378540&#45;&gt;frames_bodyobject_54378540 -->
<g id="edge14" class="edge"><title>frames_dvl_body_producerobject_54378540&#45;&gt;frames_bodyobject_54378540</title>
<path fill="none" stroke="black" d="M446.543,-106.325C461.921,-108.263 542.451,-118.412 590.406,-124.456"/>
<polygon fill="black" stroke="black" points="590.038,-127.937 600.397,-125.715 590.913,-120.992 590.038,-127.937"/>
</g>
<!-- frames_pressure_sensor_body_producerobject_54378540&#45;&gt;frames_bodyobject_54378540 -->
<g id="edge16" class="edge"><title>frames_pressure_sensor_body_producerobject_54378540&#45;&gt;frames_bodyobject_54378540</title>
<path fill="none" stroke="black" d="M446.543,-130.972C461.76,-130.805 540.767,-129.939 588.885,-129.412"/>
<polygon fill="black" stroke="black" points="588.979,-132.911 598.94,-129.302 588.902,-125.912 588.979,-132.911"/>
</g>
<!-- frames_dvl_dvl_producerobject_54378540&#45;&gt;frames_dvlobject_54378540 -->
<g id="edge18" class="edge"><title>frames_dvl_dvl_producerobject_54378540&#45;&gt;frames_dvlobject_54378540</title>
<path fill="none" stroke="black" d="M439.961,-42.29C430.459,-48.373 389.077,-57.7372 357.93,-62.3262"/>
<polygon fill="black" stroke="black" points="357.263,-58.8843 347.82,-63.6878 358.198,-65.8216 357.263,-58.8843"/>
</g>
<!-- labelobject_54378540 -->
<g id="node9" class="node"><title>labelobject_54378540</title>
<g id="a_node9"><a xlink:href="plan://syskit/object_54378540" xlink:title="&lt;TABLE&gt;">
<text text-anchor="start" x="485.963" y="-184.8" font-family="Arial" font-size="14.00">OroGen::UwvKalmanFilters::VelocityProvider</text>
<polygon fill="none" stroke="white" points="482.463,-178.5 482.463,-199.5 772.463,-199.5 772.463,-178.5 482.463,-178.5"/>
</a>
</g>
</g>
<!-- labelobject_54378540&#45;&gt;outputsobject_54378540 -->
<!-- inputsobject_54378540 -->
<g id="node10" class="node"><title>inputsobject_54378540</title>
<polygon fill="none" stroke="black" points="16,-172 16,-201 202,-201 202,-172 16,-172"/>
<text text-anchor="start" x="68" y="-182.8" font-family="Arial" font-size="14.00">body_efforts</text>
<polygon fill="none" stroke="black" points="16,-143 16,-172 202,-172 202,-143 16,-143"/>
<text text-anchor="start" x="41" y="-153.8" font-family="Arial" font-size="14.00">dvl_velocity_samples</text>
<polygon fill="none" stroke="black" points="16,-114 16,-143 202,-143 202,-114 16,-114"/>
<text text-anchor="start" x="40.5" y="-124.8" font-family="Arial" font-size="14.00">imu_sensor_samples</text>
<polygon fill="none" stroke="black" points="16,-85 16,-114 202,-114 202,-85 16,-85"/>
<text text-anchor="start" x="23.5" y="-95.8" font-family="Arial" font-size="14.00">pressure_sensor_samples</text>
<polygon fill="none" stroke="black" points="16,-56 16,-85 202,-85 202,-56 16,-56"/>
<text text-anchor="start" x="29.5" y="-66.8" font-family="Arial" font-size="14.00">dynamic_transformations</text>
</g>
<!-- inputsobject_54378540&#45;&gt;frames_imuobject_54378540 -->
<!-- inputsobject_54378540&#45;&gt;frames_bodyobject_54378540 -->
<!-- inputsobject_54378540&#45;&gt;frames_bodyobject_54378540 -->
<g id="edge20" class="edge"><title>inputsobject_54378540:body_efforts&#45;&gt;frames_bodyobject_54378540</title>
<path fill="none" stroke="black" d="M198,-187C236.959,-187 205.586,-130.614 238,-109 275.365,-84.0845 394.588,-94.7792 439.463,-93 501.074,-90.5573 572.163,-110.78 606.222,-121.941"/>
</g>
<!-- inputsobject_54378540&#45;&gt;frames_dvlobject_54378540 -->
<!-- inputsobject_54378540&#45;&gt;frames_pressure_sensorobject_54378540 -->
<!-- inputsobject_54378540&#45;&gt;frames_dvl_dvl_producerobject_54378540 -->
<g id="edge19" class="edge"><title>inputsobject_54378540:dvl_velocity_samples&#45;&gt;frames_dvl_dvl_producerobject_54378540</title>
<path fill="none" stroke="black" d="M198,-158C289.404,-158 330.013,-203.404 403.463,-149 439.588,-122.242 441.971,-58.8575 442.002,-43.4293"/>
</g>
<!-- inputsobject_54378540&#45;&gt;labelobject_54378540 -->
</g>
</svg>
